<svg width="614" height="176" viewBox="0 0 614 176" fill="none" xmlns="http://www.w3.org/2000/svg">
<g clip-path="url(#clip0_529_820)">
<path d="M0 166.024C12.1569 144.337 24.1956 122.576 36.4856 100.963C51.1124 75.2443 66.2864 49.8368 80.5583 23.9252C86.9473 12.3184 94.7858 3.32047 107.963 0C122.265 0 136.551 0 150.853 0C119.307 55.3363 87.746 110.687 56.2 166.024C37.4617 166.024 18.7383 166.024 0 166.024Z" fill="#033641"/>
<path d="M99.0896 166.023C115.033 136.613 130.902 107.174 146.948 77.8381C150.335 71.6418 152.805 64.8527 158.824 60.287C166.367 54.5503 175.004 55.5138 183.626 55.3359C184.691 58.4785 182.428 60.5242 181.26 62.7329C164.489 94.4998 147.629 126.222 130.828 157.989C129.452 160.583 128.402 163.34 127.19 166.038C117.828 166.023 108.451 166.023 99.0896 166.023Z" fill="#033641"/>
<path d="M68.0315 166.024C85.1281 134.939 102.521 104.002 119.174 72.6796C125.489 60.7911 134.214 55.3064 147.569 55.7363C153.751 55.9438 154.003 57.5596 151.4 62.3476C139.834 83.5453 128.373 104.802 116.999 126.119C109.93 139.356 103.083 152.712 96.1315 166.024C86.7698 166.024 77.3932 166.024 68.0315 166.024Z" fill="#033641"/>
<path d="M474.757 44.9013C462.497 63.0453 450.236 80.5964 438.671 98.5922C434.796 104.625 433.258 103.306 429.96 98.4143C418.823 81.8416 407.317 65.5208 395.944 49.126C395.13 47.9549 394.628 46.4281 391.847 45.8203C390.368 54.922 388.904 63.9792 387.425 73.0364C385.369 85.6957 383.136 98.3253 381.361 111.029C380.592 116.618 376.925 116.025 373.272 115.817C367.873 115.506 370.388 111.815 370.787 109.295C374.78 83.9465 378.818 58.6131 382.929 33.2944C383.402 30.3446 382.604 26.4608 387.055 25.5862C391.596 24.682 394.258 27.0389 396.713 30.6262C407.953 47.1248 419.577 63.3566 430.684 79.9441C434.056 84.9693 435.506 83.6945 438.197 79.5736C448.979 63.0601 460.071 46.7542 470.882 30.2556C473.411 26.3867 476.31 23.8963 481.072 24.9043C485.879 25.9271 484.518 30.2704 485.095 33.3686C489.68 58.1091 494.176 82.8496 498.583 107.62C499.071 110.362 501.452 114.231 495.817 114.898C491.38 115.432 488.659 114.779 487.787 109.25C484.696 89.7573 480.998 70.3533 477.537 50.9196C477.183 49.0519 477.463 46.9469 474.757 44.9013Z" fill="#033641"/>
<path d="M554.886 20.1011C573.832 20.0121 589.509 23.9552 601.414 36.57C623.258 59.68 615.597 99.0513 586.684 112.111C567.354 120.842 547.418 121.079 527.925 112.392C509.601 104.24 500.816 89.2381 500.52 69.5376C500.21 49.4962 511.716 32.8049 529.611 25.3486C538.411 21.6724 547.595 20.3531 554.886 20.1011ZM558.125 30.9519C552.609 30.3441 547.285 31.4263 542.02 32.6566C525.115 36.6442 513.505 49.0811 511.731 64.8682C509.956 80.6553 517.366 95.1972 531.682 102.016C548.113 109.843 565.106 110.05 581.611 102.372C600.32 93.6703 608.262 72.1614 599.506 53.7209C591.328 36.4663 575.858 31.3225 558.125 30.9519Z" fill="#033641"/>
<path d="M364.975 115.046C357.255 117.699 351.753 115.683 348.588 108.36C344.935 99.8959 338.99 96.9015 329.524 97.4055C311.585 98.3394 293.556 98.0281 275.572 97.8354C270.47 97.7761 267.113 99.2436 265.057 103.958C264.184 105.974 262.454 107.604 261.581 109.62C258.343 117.091 252.708 118.425 244.588 116.291C248.922 109.205 252.959 102.52 257.085 95.8787C270.618 74.1029 284.135 52.3123 297.771 30.5809C301.41 24.7849 307.059 24.4143 310.609 29.8546C328.681 57.5302 346.606 85.3095 364.561 113.059C364.782 113.43 364.753 113.978 364.975 115.046ZM305.181 87.2662C305.181 87.118 305.181 86.9846 305.181 86.8363C313.064 86.8363 320.946 86.8511 328.829 86.8215C331.654 86.8067 334.183 86.4213 331.802 82.6561C323.594 69.7596 315.341 56.8927 307.118 44.0111C305.58 41.6097 304.086 40.8537 302.267 43.8184C294.281 56.8483 286.236 69.8634 278.22 82.8784C276.297 86.0062 277.184 87.3107 280.808 87.281C288.912 87.2217 297.047 87.2662 305.181 87.2662Z" fill="#033641"/>
<path d="M260.768 172.605C258.461 172.605 256.376 172.279 254.483 171.612C252.59 170.96 250.977 170.026 249.632 168.84C248.286 167.654 247.236 166.216 246.511 164.526C245.786 162.836 245.402 160.969 245.402 158.923C245.402 156.863 245.772 154.995 246.511 153.32C247.251 151.645 248.286 150.192 249.632 148.976C250.977 147.761 252.59 146.827 254.483 146.175C256.376 145.523 258.461 145.182 260.768 145.182C263.652 145.182 266.255 145.671 268.607 146.664C270.958 147.657 272.925 149.303 274.508 151.615L271.993 153.275C270.707 151.452 269.109 150.148 267.187 149.377C265.264 148.606 263.134 148.22 260.768 148.22C258.919 148.22 257.248 148.472 255.74 148.976C254.231 149.48 252.944 150.207 251.85 151.141C250.77 152.075 249.927 153.201 249.351 154.52C248.759 155.84 248.463 157.292 248.463 158.893C248.463 160.494 248.759 161.932 249.351 163.252C249.942 164.556 250.77 165.683 251.85 166.616C252.93 167.55 254.231 168.277 255.74 168.781C257.248 169.285 258.919 169.537 260.768 169.537C263.134 169.537 265.279 169.107 267.187 168.262C269.095 167.402 270.692 166.053 271.993 164.215L274.508 165.905C272.925 168.217 270.958 169.907 268.607 170.975C266.27 172.072 263.652 172.605 260.768 172.605Z" fill="#033641"/>
<path d="M289.489 172.65C287.374 172.65 285.437 172.368 283.692 171.82C281.947 171.271 280.453 170.486 279.211 169.478C277.968 168.47 277.007 167.269 276.327 165.846C275.646 164.423 275.306 162.866 275.306 161.162C275.306 159.427 275.646 157.856 276.327 156.448C277.007 155.04 277.968 153.839 279.211 152.831C280.453 151.823 281.947 151.052 283.692 150.518C285.437 149.97 287.36 149.703 289.489 149.703C291.604 149.703 293.542 149.97 295.302 150.518C297.047 151.067 298.555 151.838 299.798 152.831C301.04 153.824 302.001 155.04 302.681 156.448C303.362 157.856 303.702 159.427 303.702 161.162C303.702 162.866 303.362 164.438 302.681 165.846C302.001 167.254 301.04 168.47 299.798 169.478C298.555 170.486 297.047 171.257 295.302 171.82C293.542 172.368 291.604 172.65 289.489 172.65ZM289.474 152.742C287.818 152.742 286.31 152.949 284.949 153.35C283.588 153.75 282.42 154.328 281.444 155.084C280.468 155.825 279.713 156.729 279.181 157.767C278.649 158.805 278.382 159.946 278.382 161.191C278.382 162.451 278.649 163.608 279.181 164.645C279.713 165.683 280.468 166.572 281.444 167.299C282.42 168.04 283.588 168.603 284.949 169.003C286.31 169.404 287.818 169.611 289.474 169.611C291.131 169.611 292.639 169.404 294.015 169.003C295.39 168.603 296.559 168.025 297.535 167.299C298.511 166.558 299.28 165.668 299.812 164.645C300.36 163.608 300.626 162.451 300.626 161.191C300.626 159.946 300.36 158.805 299.812 157.767C299.265 156.729 298.511 155.84 297.535 155.084C296.559 154.343 295.375 153.765 294.015 153.35C292.639 152.949 291.131 152.742 289.474 152.742Z" fill="#033641"/>
<path d="M306.778 171.537V150.769H309.854V152.222C310.845 150.799 312.28 150.028 314.173 149.939C314.661 149.91 315.105 149.924 315.504 149.969C315.903 150.013 316.303 150.102 316.702 150.236C317.101 150.369 317.486 150.503 317.9 150.666C318.299 150.829 318.728 151.007 319.201 151.184L318.403 154.164C317.915 153.956 317.486 153.779 317.131 153.645C316.776 153.512 316.421 153.393 316.095 153.319C315.77 153.245 315.46 153.171 315.149 153.126C314.838 153.082 314.513 153.052 314.158 153.052C311.304 153.052 309.869 154.668 309.869 157.899V171.537H306.778Z" fill="#033641"/>
<path d="M332.66 172.649C330.515 172.649 328.652 172.367 327.055 171.789C325.457 171.211 323.978 170.41 322.588 169.402V176.014H319.512V150.784H322.588V153.097C323.83 151.985 325.28 151.14 326.922 150.577C328.563 150.013 330.471 149.717 332.645 149.717C334.671 149.717 336.535 149.984 338.206 150.532C339.892 151.081 341.326 151.851 342.51 152.845C343.693 153.838 344.625 155.053 345.275 156.462C345.926 157.87 346.266 159.441 346.266 161.175C346.266 162.88 345.941 164.451 345.275 165.86C344.61 167.268 343.693 168.483 342.51 169.491C341.326 170.499 339.892 171.27 338.206 171.834C336.535 172.367 334.686 172.649 332.66 172.649ZM332.053 152.711C329.909 152.711 328.045 153.022 326.448 153.645C324.851 154.268 323.564 155.187 322.603 156.417V165.904C323.564 167.075 324.866 167.994 326.478 168.632C328.09 169.269 329.953 169.595 332.068 169.595C333.725 169.595 335.233 169.388 336.609 168.987C337.984 168.587 339.152 168.009 340.129 167.268C341.105 166.527 341.874 165.637 342.406 164.6C342.953 163.562 343.22 162.406 343.22 161.146C343.22 159.901 342.953 158.759 342.406 157.722C341.859 156.684 341.105 155.794 340.129 155.038C339.152 154.282 337.969 153.704 336.609 153.304C335.248 152.904 333.71 152.711 332.053 152.711Z" fill="#033641"/>
<path d="M362.046 172.65C359.931 172.65 357.994 172.368 356.249 171.82C354.504 171.271 353.01 170.486 351.768 169.478C350.525 168.47 349.564 167.269 348.884 165.846C348.203 164.423 347.863 162.866 347.863 161.162C347.863 159.427 348.203 157.856 348.884 156.448C349.564 155.04 350.525 153.839 351.768 152.831C353.01 151.823 354.504 151.052 356.249 150.518C357.994 149.97 359.917 149.703 362.046 149.703C364.161 149.703 366.099 149.97 367.859 150.518C369.604 151.067 371.112 151.838 372.355 152.831C373.597 153.824 374.558 155.04 375.239 156.448C375.919 157.856 376.259 159.427 376.259 161.162C376.259 162.866 375.919 164.438 375.239 165.846C374.558 167.254 373.597 168.47 372.355 169.478C371.112 170.486 369.604 171.257 367.859 171.82C366.099 172.368 364.161 172.65 362.046 172.65ZM362.032 152.742C360.375 152.742 358.867 152.949 357.506 153.35C356.145 153.75 354.977 154.328 354.001 155.084C353.025 155.825 352.271 156.729 351.738 157.767C351.206 158.805 350.939 159.946 350.939 161.191C350.939 162.451 351.206 163.608 351.738 164.645C352.271 165.683 353.025 166.572 354.001 167.299C354.977 168.04 356.145 168.603 357.506 169.003C358.867 169.404 360.375 169.611 362.032 169.611C363.688 169.611 365.197 169.404 366.572 169.003C367.947 168.603 369.116 168.025 370.092 167.299C371.068 166.558 371.837 165.668 372.369 164.645C372.917 163.608 373.183 162.451 373.183 161.191C373.183 159.946 372.917 158.805 372.369 157.767C371.822 156.729 371.068 155.84 370.092 155.084C369.116 154.343 367.933 153.765 366.572 153.35C365.197 152.949 363.688 152.742 362.032 152.742Z" fill="#033641"/>
<path d="M379.335 171.537V150.769H382.412V152.222C383.403 150.799 384.837 150.028 386.73 149.939C387.218 149.91 387.662 149.924 388.061 149.969C388.461 150.013 388.86 150.102 389.259 150.236C389.659 150.369 390.043 150.503 390.457 150.666C390.856 150.829 391.285 151.007 391.759 151.184L390.96 154.164C390.472 153.956 390.043 153.779 389.688 153.645C389.333 153.512 388.978 153.393 388.653 153.319C388.327 153.245 388.017 153.171 387.706 153.126C387.396 153.082 387.07 153.052 386.715 153.052C383.861 153.052 382.426 154.668 382.426 157.899V171.537H379.335Z" fill="#033641"/>
<path d="M403.472 172.649C401.682 172.649 400.026 172.456 398.503 172.071C396.979 171.685 395.678 171.166 394.598 170.499C393.519 169.832 392.676 169.017 392.054 168.083C391.448 167.134 391.137 166.097 391.137 164.97C391.137 162.658 392.173 160.879 394.258 159.604C396.343 158.329 399.375 157.707 403.354 157.707C405.054 157.707 406.578 157.781 407.924 157.914C409.269 158.048 410.423 158.211 411.399 158.389C412.36 158.566 413.144 158.744 413.706 158.922C414.283 159.1 414.653 159.234 414.815 159.308C414.815 157.292 413.854 155.691 411.931 154.52C410.009 153.349 407.258 152.77 403.694 152.77C401.801 152.77 400.056 152.919 398.443 153.23C396.831 153.541 395.249 154.164 393.681 155.083L392.335 152.548C393.859 151.54 395.574 150.814 397.482 150.384C399.39 149.939 401.46 149.717 403.694 149.717C406.223 149.717 408.397 149.984 410.186 150.532C411.976 151.081 413.455 151.777 414.594 152.667C415.732 153.541 416.561 154.564 417.093 155.72C417.625 156.877 417.892 158.048 417.892 159.248V171.567H414.815V169.595C413.381 170.559 411.695 171.315 409.743 171.863C407.805 172.367 405.705 172.649 403.472 172.649ZM403.472 169.595C404.744 169.595 405.956 169.491 407.11 169.299C408.278 169.106 409.343 168.824 410.334 168.469C411.325 168.113 412.198 167.668 412.952 167.149C413.706 166.63 414.327 166.052 414.815 165.4V161.694C413.943 161.516 412.553 161.279 410.63 161.012C408.722 160.746 406.297 160.612 403.339 160.612C400.484 160.612 398.251 160.998 396.624 161.754C394.997 162.51 394.184 163.577 394.184 164.941C394.184 165.637 394.406 166.26 394.864 166.823C395.323 167.386 395.944 167.876 396.757 168.276C397.571 168.676 398.547 169.002 399.686 169.225C400.869 169.491 402.111 169.595 403.472 169.595Z" fill="#033641"/>
<path d="M435.491 154.372H425.478V165.446C425.478 166.765 425.863 167.788 426.617 168.514C427.371 169.24 428.422 169.611 429.753 169.611C430.625 169.611 432.06 169.255 434.042 168.544L434.796 171.597C432.725 172.309 431.039 172.665 429.753 172.665C427.475 172.665 425.686 172.027 424.369 170.738C423.053 169.448 422.402 167.699 422.402 165.46V154.387H418.468V151.348H422.402V146.738H425.478V151.348H435.491V154.372Z" fill="#033641"/>
<path d="M449.541 172.65C447.426 172.65 445.489 172.368 443.758 171.82C442.013 171.271 440.534 170.486 439.292 169.478C438.05 168.47 437.088 167.269 436.408 165.846C435.728 164.423 435.387 162.866 435.387 161.162C435.387 159.501 435.728 157.96 436.423 156.552C437.118 155.143 438.079 153.928 439.321 152.92C440.564 151.912 442.057 151.111 443.788 150.548C445.533 149.985 447.441 149.703 449.541 149.703C451.656 149.703 453.593 149.985 455.338 150.563C457.084 151.141 458.592 151.941 459.834 152.949C461.077 153.972 462.038 155.173 462.718 156.566C463.399 157.96 463.739 159.487 463.739 161.147V162.422H438.656C438.789 163.489 439.159 164.453 439.765 165.327C440.357 166.202 441.141 166.958 442.102 167.595C443.063 168.233 444.172 168.722 445.429 169.063C446.701 169.404 448.062 169.582 449.541 169.582C451.804 169.582 453.8 169.27 455.531 168.662C457.276 168.055 458.77 167.017 460.041 165.564L462.763 166.987C461.106 168.989 459.184 170.441 456.995 171.316C454.806 172.205 452.321 172.65 449.541 172.65ZM460.382 159.842C460.219 158.79 459.849 157.826 459.258 156.952C458.666 156.077 457.897 155.336 456.965 154.713C456.019 154.091 454.91 153.617 453.652 153.261C452.395 152.905 451.02 152.742 449.541 152.742C448.062 152.742 446.701 152.92 445.444 153.261C444.187 153.602 443.078 154.091 442.131 154.713C441.17 155.336 440.401 156.077 439.795 156.952C439.188 157.826 438.819 158.79 438.656 159.842H460.382Z" fill="#033641"/>
<path d="M497.888 172.605C495.581 172.605 493.495 172.279 491.602 171.612C489.709 170.96 488.097 170.026 486.751 168.84C485.405 167.654 484.355 166.216 483.631 164.526C482.906 162.836 482.521 160.969 482.521 158.923C482.521 156.863 482.876 154.995 483.586 153.32C484.296 151.645 485.317 150.192 486.618 148.976C487.934 147.761 489.517 146.827 491.38 146.175C493.244 145.523 495.329 145.182 497.636 145.182C499.056 145.182 500.432 145.285 501.748 145.508C503.064 145.73 504.292 146.086 505.46 146.59C506.628 147.094 507.693 147.746 508.684 148.532C509.675 149.317 510.577 150.296 511.376 151.452L508.862 153.112C507.575 151.289 505.978 150.014 504.055 149.303C502.147 148.591 500.003 148.235 497.636 148.235C495.788 148.235 494.131 148.487 492.652 148.991C491.173 149.495 489.901 150.222 488.851 151.156C487.801 152.089 487.003 153.216 486.441 154.535C485.879 155.855 485.598 157.307 485.598 158.908C485.598 160.509 485.893 161.947 486.485 163.266C487.077 164.571 487.905 165.697 488.984 166.631C490.064 167.565 491.366 168.292 492.874 168.796C494.383 169.3 496.054 169.552 497.903 169.552C500.136 169.552 502.132 169.166 503.892 168.395C505.652 167.624 507.072 166.572 508.152 165.223V161.903H492.785V158.864H511.257L511.228 166.276L511.198 166.305C509.749 168.38 507.885 169.952 505.623 171.019C503.345 172.086 500.772 172.605 497.888 172.605Z" fill="#033641"/>
<path d="M514.053 171.537V150.769H517.129V152.222C518.12 150.799 519.554 150.028 521.447 149.939C521.936 149.91 522.379 149.924 522.779 149.969C523.178 150.013 523.577 150.102 523.977 150.236C524.376 150.369 524.76 150.503 525.174 150.666C525.574 150.829 526.003 151.007 526.476 151.184L525.677 154.164C525.189 153.956 524.76 153.779 524.405 153.645C524.05 153.512 523.696 153.393 523.37 153.319C523.045 153.245 522.734 153.171 522.424 153.126C522.113 153.082 521.788 153.052 521.433 153.052C518.578 153.052 517.144 154.668 517.144 157.899V171.537H514.053Z" fill="#033641"/>
<path d="M540.555 172.65C538.441 172.65 536.503 172.368 534.758 171.82C533.013 171.271 531.519 170.486 530.277 169.478C529.034 168.47 528.073 167.269 527.393 165.846C526.712 164.423 526.372 162.866 526.372 161.162C526.372 159.427 526.712 157.856 527.393 156.448C528.073 155.04 529.034 153.839 530.277 152.831C531.519 151.823 533.013 151.052 534.758 150.518C536.503 149.97 538.426 149.703 540.555 149.703C542.67 149.703 544.608 149.97 546.368 150.518C548.113 151.067 549.621 151.838 550.864 152.831C552.106 153.824 553.067 155.04 553.748 156.448C554.428 157.856 554.768 159.427 554.768 161.162C554.768 162.866 554.428 164.438 553.748 165.846C553.067 167.254 552.106 168.47 550.864 169.478C549.621 170.486 548.113 171.257 546.368 171.82C544.608 172.368 542.67 172.65 540.555 172.65ZM540.541 152.742C538.884 152.742 537.376 152.949 536.015 153.35C534.654 153.75 533.486 154.328 532.51 155.084C531.534 155.825 530.78 156.729 530.247 157.767C529.715 158.805 529.449 159.946 529.449 161.191C529.449 162.451 529.715 163.608 530.247 164.645C530.78 165.683 531.534 166.572 532.51 167.299C533.486 168.04 534.654 168.603 536.015 169.003C537.376 169.404 538.884 169.611 540.541 169.611C542.197 169.611 543.706 169.404 545.081 169.003C546.456 168.603 547.625 168.025 548.601 167.299C549.577 166.558 550.346 165.668 550.878 164.645C551.426 163.608 551.692 162.451 551.692 161.191C551.692 159.946 551.426 158.805 550.878 157.767C550.331 156.729 549.577 155.84 548.601 155.084C547.625 154.343 546.442 153.765 545.081 153.35C543.706 152.949 542.197 152.742 540.541 152.742Z" fill="#033641"/>
<path d="M570.475 172.649C566.171 172.649 562.843 171.7 560.507 169.818C558.17 167.92 557.001 165.178 557.001 161.576V150.77H560.078V161.576C560.078 164.155 561.039 166.142 562.947 167.535C564.855 168.928 567.606 169.61 571.185 169.61C573.344 169.61 575.237 169.299 576.834 168.662C578.431 168.024 579.733 167.105 580.694 165.875V150.784H583.697V171.552H580.694V169.403C579.526 170.426 578.017 171.211 576.198 171.789C574.394 172.353 572.486 172.649 570.475 172.649Z" fill="#033641"/>
<path d="M599.61 172.649C597.465 172.649 595.602 172.367 594.005 171.789C592.407 171.211 590.928 170.41 589.538 169.402V176.014H586.462V150.784H589.538V153.097C590.78 151.985 592.23 151.14 593.871 150.577C595.513 150.013 597.421 149.717 599.595 149.717C601.621 149.717 603.485 149.984 605.156 150.532C606.842 151.081 608.276 151.851 609.46 152.845C610.643 153.838 611.574 155.053 612.225 156.462C612.876 157.87 613.216 159.441 613.216 161.175C613.216 162.88 612.891 164.451 612.225 165.86C611.56 167.268 610.643 168.483 609.46 169.491C608.276 170.499 606.842 171.27 605.156 171.834C603.499 172.367 601.636 172.649 599.61 172.649ZM599.003 152.711C596.859 152.711 594.995 153.022 593.398 153.645C591.801 154.268 590.514 155.187 589.553 156.417V165.904C590.514 167.075 591.816 167.994 593.428 168.632C595.04 169.269 596.903 169.595 599.018 169.595C600.675 169.595 602.183 169.388 603.559 168.987C604.934 168.587 606.102 168.009 607.078 167.268C608.055 166.527 608.824 165.637 609.356 164.6C609.903 163.562 610.169 162.406 610.169 161.146C610.169 159.901 609.903 158.759 609.356 157.722C608.809 156.684 608.055 155.794 607.078 155.038C606.102 154.282 604.919 153.704 603.559 153.304C602.198 152.904 600.66 152.711 599.003 152.711Z" fill="#033641"/>
<path d="M174.782 168.425C190.023 168.425 202.379 156.041 202.379 140.764C202.379 125.488 190.023 113.104 174.782 113.104C159.54 113.104 147.185 125.488 147.185 140.764C147.185 156.041 159.54 168.425 174.782 168.425Z" fill="#033641"/>
</g>
<defs>
<clipPath id="clip0_529_820">
<rect width="614" height="176" fill="white"/>
</clipPath>
</defs>
</svg>
