<svg width="217" height="69" viewBox="0 0 217 69" fill="none" xmlns="http://www.w3.org/2000/svg">
<path d="M149.672 33.4962C150.463 33.4962 151.143 33.7782 151.709 34.3422C152.277 34.8905 152.559 35.5647 152.559 36.3661V43.7088C152.559 44.5391 152.246 45.2435 151.619 45.8219C148.499 48.6262 144.841 50.0271 140.647 50.0271C136.138 50.0271 132.294 48.4413 129.113 45.2658C125.919 42.1073 124.321 38.2877 124.321 33.8071C124.321 29.3422 125.919 25.5239 129.113 22.3497C132.294 19.1899 136.137 17.6094 140.647 17.6094C144.559 17.6094 148.014 18.841 151.014 21.303C151.627 21.808 151.97 22.4533 152.044 23.239C152.118 24.0247 151.902 24.7225 151.395 25.3311C150.902 25.9384 150.259 26.2873 149.47 26.3765C148.678 26.45 147.97 26.2362 147.343 25.7312C145.402 24.1296 143.17 23.3282 140.647 23.3282C137.736 23.3282 135.242 24.3513 133.168 26.3988C131.107 28.445 130.077 30.9149 130.077 33.8071C130.077 36.7006 131.107 39.177 133.168 41.239C135.243 43.2865 137.736 44.3096 140.647 44.3096C142.9 44.3096 144.947 43.6498 146.782 42.329V36.3661C146.782 35.5647 147.066 34.8905 147.633 34.3422C148.201 33.7782 148.88 33.4962 149.672 33.4962Z" fill="url(#paint0_linear_536_1458)"/>
<path d="M179.499 28.5584C179.499 30.6794 178.909 32.6233 177.73 34.3875C176.566 36.1084 175.036 37.3768 173.14 38.1926L178.335 45.046C178.827 45.6691 179.015 46.3734 178.895 47.1591C178.79 47.9448 178.425 48.577 177.798 49.0505C177.156 49.5254 176.439 49.7103 175.648 49.6067C174.872 49.4886 174.238 49.1174 173.746 48.4944L166.58 39.0609H162.796V46.7591C162.796 47.5592 162.512 48.2347 161.946 48.783C161.393 49.347 160.721 49.629 159.93 49.629C159.124 49.629 158.445 49.347 157.893 48.783C157.325 48.2347 157.042 47.5592 157.042 46.7591V20.9062C157.042 20.1205 157.326 19.445 157.893 18.881C158.445 18.3327 159.124 18.0586 159.93 18.0586H160.064L160.222 18.0809L160.356 18.0586H160.513H169.023C171.905 18.073 174.376 19.1119 176.436 21.1738C178.476 23.22 179.499 25.682 179.499 28.5584ZM168.975 33.3421C170.288 33.3276 171.416 32.8528 172.356 31.9189C173.281 30.9837 173.745 29.8649 173.745 28.5584C173.745 27.2533 173.281 26.1332 172.356 25.1993C171.416 24.2641 170.296 23.7906 168.997 23.7748H162.795V33.3421H168.975Z" fill="url(#paint1_linear_536_1458)"/>
<path d="M216.967 33.3193C216.755 43.1883 207.349 51.6577 197.378 50.3788C189.068 49.3124 182.488 41.6117 182.478 33.3443C182.476 31.908 182.651 30.4691 183.001 29.0748C183.178 28.3678 183.401 27.6713 183.67 26.9932C183.921 26.361 184.19 25.612 184.605 25.0677C184.68 25.6107 184.617 26.2036 184.642 26.7545C184.669 27.3487 184.717 27.9415 184.782 28.5318C184.969 30.2159 185.286 31.8398 185.934 33.4072C186.551 34.896 187.377 36.2981 188.373 37.5691C189.888 39.5038 191.813 41.1185 194.001 42.257C195.997 43.2958 198.236 43.9504 200.487 43.8402C202.706 43.7326 204.874 42.8669 206.578 41.4503C208.672 39.7111 210.045 37.1402 210.324 34.4434C210.932 28.5488 206.294 23.1671 200.335 22.889C196.44 22.708 192.686 24.7253 190.713 28.0674C189.495 30.1307 189.293 32.3238 189.371 34.6599C187.706 31.7453 187.023 28.234 187.759 24.9641C189.039 19.2701 194.274 15.928 199.979 16.0316C205.789 16.1366 211.538 19.4695 214.575 24.3764C216.283 27.1375 217.034 30.2396 216.967 33.3193Z" fill="url(#paint2_linear_536_1458)"/>
<path d="M204.787 5.38699C201.695 7.18659 200.215 10.4107 199.696 12.8412C203.419 9.89124 208.204 8.14935 209.287 7.64436C211.726 6.50978 212.745 5.56932 213.539 4.85971C210.503 9.47413 203.016 10.8711 199.262 14.1109C201.709 14.5201 207.702 14.9962 211.903 11.5059C217.51 6.85081 216.986 0 216.986 0C215.029 2.78335 208.204 3.39983 204.787 5.38699Z" fill="url(#paint3_linear_536_1458)"/>
<path d="M60.8621 21.815C64.1151 18.2289 68.1233 17.2281 72.6094 17.6268C79.2659 18.2197 84.6907 23.7103 84.894 30.3434C85.0616 35.813 84.9811 41.2905 84.9309 46.7641C84.9098 49.0608 83.5117 50.4905 81.5406 50.5023C79.6039 50.5141 78.1266 49.0346 78.0909 46.7929C78.0223 42.3582 78.0658 37.9222 78.0619 33.4861C78.0605 32.6362 78.0988 31.7836 78.0341 30.9389C77.7463 27.1613 74.8155 24.4553 71.0779 24.4816C67.3444 24.5065 64.4056 27.2583 64.3118 31.0818C64.1957 35.7986 64.2775 40.5192 64.2696 45.2373C64.2683 45.9915 64.3224 46.7601 64.2036 47.4986C63.9158 49.2995 62.3342 50.5849 60.6232 50.5049C58.9887 50.4289 57.5854 49.2221 57.3939 47.4815C57.2289 45.9876 57.2896 44.4673 57.2817 42.9589C57.2632 39.0895 57.3583 35.2175 57.2302 31.352C57.1048 27.5849 54.6545 24.9026 51.2695 24.5196C47.388 24.0802 44.0426 26.5789 43.6333 30.4444C43.3957 32.6873 43.5079 34.967 43.4934 37.2309C43.4736 40.3448 43.5409 43.4613 43.4591 46.5739C43.3944 49.0411 41.9474 50.5561 39.9235 50.5036C37.9142 50.4525 36.5293 48.8863 36.5068 46.4322C36.4619 41.3364 36.3986 36.2367 36.5214 31.1435C36.6613 25.3092 39.4866 20.9204 44.8585 18.7037C50.2054 16.4975 55.4651 16.9657 59.9551 21.1171C60.1637 21.3047 60.4027 21.4608 60.8621 21.815Z" fill="black"/>
<path d="M26.1024 47.5217C17.7177 53.2065 8.04845 50.0519 3.53728 44.0196C-0.455049 38.6811 -1.08611 32.8193 1.73651 26.9365C4.66606 20.8334 9.79377 17.5398 16.7592 17.5332C25.8093 17.524 33.1035 24.565 33.3253 33.5473C33.4256 37.6016 33.3569 41.6612 33.3451 45.7182C33.3358 48.5317 32.5041 49.9326 30.6215 50.4021C28.9448 50.8193 27.6668 50.0296 26.1024 47.5217ZM16.853 24.4614C11.4797 24.405 7.20747 28.4921 7.11374 33.7795C7.01604 39.2242 11.2526 43.5317 16.7117 43.5369C22.0255 43.5422 26.307 39.333 26.3466 34.0654C26.3862 28.8161 22.1351 24.5165 16.853 24.4614Z" fill="black"/>
<path d="M88.0667 34.0373C88.0364 24.7953 95.3622 17.5025 104.657 17.5235C113.81 17.5432 121.168 24.7612 121.249 33.796C121.33 42.9592 113.944 50.4449 104.758 50.5078C95.5378 50.5708 88.0984 43.2294 88.0667 34.0373ZM95.0216 34.1094C95.0454 39.3718 99.3361 43.6452 104.609 43.661C109.837 43.6767 114.22 39.3653 114.278 34.1501C114.338 28.8116 109.91 24.4399 104.503 24.4963C99.1895 24.5527 94.9965 28.8025 95.0216 34.1094Z" fill="black"/>
<path d="M17.0206 68.6715C16.437 68.6715 15.8694 68.5626 15.3162 68.3462C14.763 68.1284 14.2679 67.8031 13.8296 67.3677C13.4098 66.9414 13.085 66.4587 12.8579 65.917C12.6309 65.3753 12.5173 64.8021 12.5173 64.1974C12.5173 63.6006 12.6309 63.0326 12.8579 62.4909C13.085 61.9492 13.4085 61.4665 13.8296 61.0402C14.2666 60.606 14.7604 60.2781 15.3096 60.0565C15.8588 59.8348 16.4291 59.7246 17.0206 59.7246C17.6213 59.7246 18.1956 59.8348 18.7448 60.0565C19.294 60.2781 19.7864 60.606 20.2247 61.0402C20.3185 61.1255 20.366 61.2448 20.366 61.3983C20.366 61.5518 20.3145 61.6803 20.2115 61.7826C20.1086 61.8757 19.9845 61.923 19.8379 61.923C19.6835 61.923 19.5594 61.8757 19.4643 61.7826C19.1382 61.4586 18.7672 61.2094 18.3514 61.035C17.9355 60.8605 17.4906 60.7726 17.0193 60.7726C16.5466 60.7726 16.1083 60.8605 15.7004 61.035C15.2924 61.2107 14.9214 61.4586 14.5874 61.7826C14.2613 62.1066 14.0105 62.4752 13.8349 62.8883C13.6593 63.3015 13.5709 63.7383 13.5709 64.1987C13.5709 64.6591 13.6593 65.0959 13.8349 65.509C14.0105 65.9222 14.2613 66.2908 14.5874 66.6148C14.9307 66.9558 15.3149 67.2116 15.7387 67.3821C16.1638 67.5526 16.5902 67.6379 17.0193 67.6379C17.851 67.6379 18.6194 67.3519 19.323 66.7814V64.7102H17.0589C16.9123 64.7102 16.7869 64.6617 16.6786 64.5633C16.5717 64.465 16.5176 64.3443 16.5176 64.1987C16.5176 64.0531 16.5704 63.9324 16.6786 63.834C16.7856 63.7357 16.9123 63.6871 17.0589 63.6871H19.8379C19.9831 63.6871 20.1086 63.737 20.2115 63.834C20.3145 63.9324 20.366 64.0531 20.366 64.1987V66.986C20.366 67.0542 20.3528 67.125 20.3277 67.1971C20.3026 67.2693 20.263 67.327 20.2115 67.3703C19.7745 67.8044 19.2808 68.1311 18.7316 68.3488C18.1837 68.5639 17.6134 68.6715 17.0206 68.6715Z" fill="#13383F"/>
<path d="M28.3307 67.8668L28.3175 67.8536C28.3347 67.9048 28.3519 67.956 28.369 68.0071C28.3862 68.0583 28.3941 68.1094 28.3941 68.1606C28.3941 68.2367 28.3703 68.318 28.3228 68.4032C28.2753 68.4885 28.2132 68.5567 28.1367 68.6079C28.068 68.6511 27.9822 68.6721 27.8792 68.6721C27.6654 68.6721 27.5109 68.5908 27.4158 68.4295L25.5755 65.515H23.8262V68.1606C23.8262 68.297 23.7747 68.4164 23.6717 68.5187C23.5687 68.621 23.4446 68.6721 23.2981 68.6721C23.1515 68.6721 23.0301 68.621 22.9311 68.5187C22.8321 68.4164 22.7832 68.297 22.7832 68.1606V60.2342C22.7832 60.0978 22.8321 59.9784 22.9311 59.8761C23.0301 59.7738 23.1515 59.7227 23.2981 59.7227H25.4725C25.5147 59.7227 25.6784 59.741 25.961 59.7804C26.2435 59.8184 26.5617 59.9194 26.9128 60.0807H26.8996C27.363 60.3273 27.7274 60.671 27.9928 61.1091C28.2581 61.5485 28.3915 62.0482 28.3915 62.6109C28.3915 62.6359 28.3888 62.6923 28.3849 62.7775C28.3809 62.8628 28.3651 62.9716 28.34 63.1028C28.3136 63.2353 28.2779 63.3848 28.2304 63.5501C28.1829 63.7154 28.1169 63.8846 28.0311 64.0551C27.9109 64.3017 27.7366 64.5286 27.5096 64.7332C27.2825 64.9378 27.0145 65.1254 26.7056 65.2959L28.3307 67.8668ZM23.8275 64.4656H25.4738C25.8593 64.4656 26.1854 64.3935 26.4521 64.2479C26.7174 64.1036 26.9287 63.8937 27.0831 63.6222C27.1425 63.512 27.1901 63.3979 27.2244 63.2825C27.2587 63.1671 27.2838 63.0608 27.3023 62.9638C27.3195 62.8654 27.33 62.7854 27.334 62.7211C27.3379 62.6568 27.3406 62.6214 27.3406 62.6122C27.3406 61.8541 27.0356 61.3163 26.427 61.0015C26.3069 60.9425 26.1907 60.8966 26.0798 60.8677C25.9676 60.8376 25.8659 60.814 25.7708 60.7969C25.6679 60.7799 25.5689 60.772 25.4751 60.772H23.8288V64.4656H23.8275Z" fill="#13383F"/>
<path d="M38.2643 67.956C38.2814 68.0242 38.2893 68.0924 38.2893 68.1606C38.2893 68.2878 38.2445 68.4059 38.1547 68.5121C38.0649 68.6183 37.9382 68.6721 37.7758 68.6721C37.6807 68.6721 37.5844 68.6367 37.4867 68.5633C37.3876 68.4911 37.3177 68.4085 37.2741 68.314V68.3272L36.618 66.7033H32.5517C32.4566 66.9499 32.3497 67.2214 32.2296 67.5152C32.1094 67.809 31.9972 68.0793 31.8956 68.3272C31.852 68.4124 31.782 68.4911 31.683 68.5633C31.584 68.6354 31.4916 68.6721 31.4058 68.6721C31.2513 68.6721 31.1272 68.617 31.0321 68.5055C30.9371 68.3954 30.8909 68.2799 30.8909 68.1606C30.8909 68.0924 30.8988 68.0242 30.916 67.956L33.4244 61.6915L34.0937 60.0676V60.0807C34.136 59.9863 34.2033 59.9037 34.2931 59.8315C34.3828 59.7594 34.4832 59.7227 34.5954 59.7227C34.6891 59.7227 34.7842 59.7581 34.8779 59.8315C34.973 59.9037 35.0403 59.9863 35.0839 60.0807V60.0676L38.2643 67.956ZM36.1796 65.654L34.5967 61.6403L32.9887 65.654H36.1796Z" fill="#13383F"/>
<path d="M46.8085 68.6695C46.7135 68.6695 46.6303 68.6459 46.5577 68.5987C46.4851 68.5515 46.423 68.4938 46.3715 68.4256L41.7785 61.8935V68.158C41.7785 68.2944 41.7244 68.4138 41.6174 68.5161C41.5105 68.6184 41.3798 68.6695 41.2253 68.6695C41.088 68.6695 40.9679 68.6184 40.8649 68.5161C40.7619 68.4138 40.7104 68.2944 40.7104 68.158V60.2316C40.7104 60.1031 40.7619 59.9863 40.8649 59.8801C40.9679 59.7738 41.092 59.7201 41.2385 59.7201C41.3323 59.7201 41.4168 59.7437 41.4894 59.7896C41.562 59.8368 41.624 59.8945 41.6755 59.9627L46.2818 66.4948V60.2303C46.2818 60.0939 46.3332 59.9745 46.4362 59.8722C46.5392 59.7699 46.6633 59.7188 46.8098 59.7188C46.9564 59.7188 47.0805 59.7699 47.1835 59.8722C47.2864 59.9745 47.3379 60.0939 47.3379 60.2303V68.1567C47.3379 68.2931 47.2864 68.4124 47.1835 68.5148C47.0778 68.6197 46.9537 68.6695 46.8085 68.6695Z" fill="#13383F"/>
<path d="M50.2954 68.6702C50.1581 68.6702 50.038 68.619 49.935 68.5167C49.832 68.4144 49.7805 68.295 49.7805 68.1586V60.2323C49.7805 60.0958 49.832 59.9765 49.935 59.8742C50.038 59.7719 50.1581 59.7207 50.2954 59.7207H52.6111C52.619 59.7207 52.7206 59.7273 52.9134 59.7391C53.1061 59.7522 53.3451 59.7981 53.6276 59.8794C53.9115 59.9607 54.2151 60.0906 54.5412 60.269C54.8673 60.4474 55.167 60.7031 55.4416 61.0363C55.7162 61.3695 55.9459 61.7905 56.1294 62.3021C56.3143 62.8136 56.4053 63.4445 56.4053 64.1935C56.4053 64.9424 56.3129 65.5733 56.1294 66.0849C55.9446 66.5964 55.7149 67.0175 55.4416 67.3506C55.167 67.6838 54.8673 67.9383 54.5412 68.118C54.2151 68.2964 53.9115 68.4275 53.6276 68.5075C53.3451 68.5888 53.1061 68.6361 52.9134 68.6479C52.7206 68.661 52.619 68.6676 52.6111 68.6676H50.2954V68.6702ZM50.8486 67.6222H52.6111C52.6282 67.6222 52.6797 67.6182 52.7655 67.609C52.8513 67.5999 52.9583 67.5815 53.0877 67.5513C53.217 67.5212 53.3623 67.4739 53.5246 67.411C53.687 67.3467 53.8547 67.2641 54.0263 67.1618C54.4462 66.8798 54.7722 66.4889 55.0046 65.9852C55.2356 65.4828 55.3518 64.886 55.3518 64.1961C55.3518 63.4799 55.2317 62.8713 54.9914 62.3676C54.7511 61.864 54.4079 61.4731 53.9616 61.1911C53.8072 61.0888 53.6487 61.0101 53.485 60.955C53.3213 60.8999 53.1761 60.8592 53.048 60.833C52.9187 60.8068 52.7734 60.7858 52.6111 60.7687H50.8486V67.6222Z" fill="#13383F"/>
<path d="M69.1586 67.8668L69.1454 67.8536C69.1626 67.9048 69.1797 67.956 69.1969 68.0071C69.2141 68.0583 69.222 68.1094 69.222 68.1606C69.222 68.2367 69.1982 68.318 69.1507 68.4032C69.1032 68.4885 69.0411 68.5567 68.9646 68.6079C68.8959 68.6511 68.8101 68.6721 68.7071 68.6721C68.4932 68.6721 68.3388 68.5908 68.2437 68.4295L66.4033 65.515H64.6541V68.1606C64.6541 68.297 64.6026 68.4164 64.4996 68.5187C64.3966 68.621 64.2725 68.6721 64.126 68.6721C63.9794 68.6721 63.858 68.621 63.759 68.5187C63.6599 68.4164 63.6111 68.297 63.6111 68.1606V60.2342C63.6111 60.0978 63.6599 59.9784 63.759 59.8761C63.858 59.7738 63.9794 59.7227 64.126 59.7227H66.3004C66.3426 59.7227 66.5063 59.741 66.7888 59.7804C67.0714 59.8184 67.3895 59.9194 67.7407 60.0807H67.7275C68.1909 60.3273 68.5553 60.671 68.8206 61.1091C69.086 61.5485 69.2194 62.0482 69.2194 62.6109C69.2194 62.6359 69.2167 62.6923 69.2128 62.7775C69.2088 62.8628 69.1929 62.9716 69.1679 63.1028C69.1415 63.2353 69.1058 63.3848 69.0583 63.5501C69.0108 63.7154 68.9448 63.8846 68.8589 64.0551C68.7388 64.3017 68.5645 64.5286 68.3375 64.7332C68.1104 64.9378 67.8424 65.1254 67.5334 65.2959L69.1586 67.8668ZM64.6541 64.4656H66.3004C66.6859 64.4656 67.012 64.3935 67.2786 64.2479C67.544 64.1036 67.7552 63.8937 67.9097 63.6222C67.9691 63.512 68.0166 63.3979 68.051 63.2825C68.0853 63.1671 68.1104 63.0608 68.1289 62.9638C68.146 62.8654 68.1566 62.7854 68.1605 62.7211C68.1645 62.6568 68.1671 62.6214 68.1671 62.6122C68.1671 61.8541 67.8622 61.3163 67.2536 61.0015C67.1334 60.9425 67.0172 60.8966 66.9063 60.8677C66.7941 60.8376 66.6925 60.814 66.5974 60.7969C66.4944 60.7799 66.3954 60.772 66.3017 60.772H64.6554V64.4656H64.6541Z" fill="#13383F"/>
<path d="M77.0191 67.7763C77.1221 67.8786 77.1735 68.0058 77.1735 68.1606C77.1735 68.297 77.1221 68.4164 77.0191 68.5187C76.9161 68.621 76.792 68.6721 76.6455 68.6721H72.2703C72.1237 68.6721 71.9996 68.621 71.8967 68.5187C71.7937 68.4164 71.7422 68.297 71.7422 68.1606V60.2342C71.7422 60.0978 71.7937 59.9784 71.8967 59.8761C71.9996 59.7738 72.1237 59.7227 72.2703 59.7227H76.6455C76.7907 59.7227 76.9161 59.7738 77.0191 59.8761C77.1221 59.9784 77.1735 60.0978 77.1735 60.2342C77.1735 60.3877 77.1221 60.5149 77.0191 60.6172C76.9161 60.7195 76.792 60.7707 76.6455 60.7707H72.7984V63.6852H75.8481C75.9933 63.6852 76.1161 63.735 76.2151 63.8321C76.3141 63.9305 76.3629 64.0511 76.3629 64.1967C76.3629 64.3423 76.3141 64.463 76.2151 64.5614C76.1161 64.6597 75.9946 64.7083 75.8481 64.7083H72.7984V67.6228H76.6455C76.792 67.6228 76.9174 67.6739 77.0191 67.7763Z" fill="#13383F"/>
<path d="M83.5052 68.6715C82.9217 68.6715 82.354 68.5626 81.8008 68.3462C81.2476 68.1284 80.7526 67.8031 80.3142 67.3677C79.8944 66.9414 79.5696 66.4587 79.3426 65.917C79.1155 65.3753 79.002 64.8021 79.002 64.1974C79.002 63.6006 79.1155 63.0326 79.3426 62.4909C79.5696 61.9492 79.8931 61.4665 80.3142 61.0402C80.7512 60.606 81.245 60.2781 81.7942 60.0565C82.3434 59.8348 82.9138 59.7246 83.5052 59.7246C84.1059 59.7246 84.6802 59.8348 85.2294 60.0565C85.7786 60.2781 86.271 60.606 86.7094 61.0402C86.8031 61.1255 86.8506 61.2448 86.8506 61.3983C86.8506 61.5518 86.7991 61.6803 86.6962 61.7826C86.5932 61.8757 86.4691 61.923 86.3225 61.923C86.1681 61.923 86.044 61.8757 85.9489 61.7826C85.6228 61.4586 85.2518 61.2094 84.836 61.035C84.4201 60.8605 83.9752 60.7726 83.5039 60.7726C83.0312 60.7726 82.5929 60.8605 82.185 61.035C81.777 61.2107 81.4061 61.4586 81.0721 61.7826C80.746 62.1066 80.4951 62.4752 80.3195 62.8883C80.1439 63.3015 80.0555 63.7383 80.0555 64.1987C80.0555 64.6591 80.1439 65.0959 80.3195 65.509C80.4951 65.9222 80.746 66.2908 81.0721 66.6148C81.4153 66.9558 81.7995 67.2116 82.2233 67.3821C82.6484 67.5526 83.0748 67.6379 83.5039 67.6379C84.3356 67.6379 85.104 67.3519 85.8077 66.7814V64.7102H83.5435C83.3969 64.7102 83.2715 64.6617 83.1633 64.5633C83.0563 64.465 83.0022 64.3443 83.0022 64.1987C83.0022 64.0531 83.055 63.9324 83.1633 63.834C83.2702 63.7357 83.3969 63.6871 83.5435 63.6871H86.3225C86.4678 63.6871 86.5932 63.737 86.6962 63.834C86.7991 63.9324 86.8506 64.0531 86.8506 64.1987V66.986C86.8506 67.0542 86.8374 67.125 86.8123 67.1971C86.7873 67.2693 86.7476 67.327 86.6962 67.3703C86.2592 67.8044 85.7654 68.1311 85.2162 68.3488C84.667 68.5639 84.0967 68.6715 83.5052 68.6715Z" fill="#13383F"/>
<path d="M89.8357 68.6702C89.6984 68.6702 89.5782 68.619 89.4753 68.5167C89.3723 68.4144 89.3208 68.295 89.3208 68.1586V60.2323C89.3208 60.0958 89.3723 59.9765 89.4753 59.8742C89.5782 59.7719 89.6984 59.7207 89.8357 59.7207C89.9809 59.7207 90.1077 59.7719 90.2146 59.8742C90.3215 59.9765 90.3756 60.0958 90.3756 60.2323V68.1586C90.3756 68.295 90.3215 68.4144 90.2146 68.5167C90.1077 68.6203 89.9809 68.6702 89.8357 68.6702Z" fill="#13383F"/>
<path d="M97.3371 68.6702C96.7456 68.6702 96.1872 68.5534 95.6644 68.3186C95.1416 68.0839 94.6835 67.7651 94.294 67.3598C93.9032 66.9545 93.5943 66.4797 93.3672 65.934C93.1401 65.3884 93.0266 64.8086 93.0266 64.1961C93.0266 63.5822 93.1401 63.0051 93.3672 62.4634C93.5943 61.923 93.9032 61.4469 94.294 61.0376C94.6835 60.6284 95.1416 60.307 95.6644 60.0722C96.1872 59.8374 96.7456 59.7207 97.3371 59.7207C97.9286 59.7207 98.487 59.8374 99.0098 60.0722C99.5326 60.307 99.9881 60.6284 100.374 61.0376C100.759 61.4469 101.067 61.9217 101.294 62.4634C101.521 63.0051 101.634 63.5822 101.634 64.1961C101.634 64.8099 101.521 65.3897 101.294 65.934C101.067 66.4797 100.76 66.9545 100.374 67.3598C99.9881 67.7651 99.5326 68.0839 99.0098 68.3186C98.4857 68.5534 97.9286 68.6702 97.3371 68.6702ZM97.3371 60.77C96.883 60.77 96.4578 60.8592 96.0631 61.0389C95.6684 61.2173 95.3251 61.4613 95.0333 61.7682C94.7416 62.0751 94.5105 62.4372 94.3389 62.8556C94.1673 63.2727 94.0815 63.72 94.0815 64.1974C94.0815 64.6748 94.1673 65.1221 94.3389 65.5392C94.5105 65.9563 94.7416 66.3197 95.0333 66.6266C95.3251 66.9335 95.6684 67.1762 96.0631 67.3546C96.4578 67.533 96.8816 67.6235 97.3371 67.6235C97.7833 67.6235 98.2032 67.5343 98.5979 67.3546C98.9927 67.1762 99.3372 66.9322 99.6343 66.6266C99.93 66.3197 100.162 65.9577 100.329 65.5392C100.496 65.1221 100.58 64.6748 100.58 64.1974C100.58 63.72 100.496 63.2727 100.329 62.8556C100.161 62.4385 99.93 62.0751 99.6343 61.7682C99.3386 61.4613 98.9927 61.2186 98.5979 61.0389C98.2032 60.8592 97.7833 60.77 97.3371 60.77Z" fill="#13383F"/>
<path d="M110.101 68.6695C110.006 68.6695 109.923 68.6459 109.85 68.5987C109.778 68.5515 109.715 68.4938 109.664 68.4256L105.071 61.8935V68.158C105.071 68.2944 105.017 68.4138 104.91 68.5161C104.803 68.6184 104.672 68.6695 104.518 68.6695C104.381 68.6695 104.26 68.6184 104.157 68.5161C104.054 68.4138 104.003 68.2944 104.003 68.158V60.2316C104.003 60.1031 104.054 59.9863 104.157 59.8801C104.26 59.7738 104.384 59.7201 104.531 59.7201C104.625 59.7201 104.709 59.7437 104.782 59.7896C104.854 59.8368 104.917 59.8945 104.968 59.9627L109.574 66.4948V60.2303C109.574 60.0939 109.626 59.9745 109.729 59.8722C109.832 59.7699 109.956 59.7188 110.102 59.7188C110.248 59.7188 110.373 59.7699 110.475 59.8722C110.579 59.9745 110.629 60.0939 110.629 60.2303V68.1567C110.629 68.2931 110.578 68.4124 110.475 68.5148C110.372 68.6197 110.246 68.6695 110.101 68.6695Z" fill="#13383F"/>
<path d="M120.446 67.956C120.463 68.0242 120.472 68.0924 120.472 68.1606C120.472 68.2878 120.428 68.4059 120.338 68.5121C120.248 68.6183 120.121 68.6721 119.958 68.6721C119.864 68.6721 119.766 68.6367 119.668 68.5633C119.571 68.4898 119.499 68.4085 119.456 68.314V68.3272L118.8 66.7033H114.733C114.64 66.9499 114.533 67.2214 114.413 67.5152C114.293 67.809 114.182 68.0793 114.077 68.3272C114.035 68.4124 113.964 68.4911 113.865 68.5633C113.766 68.6354 113.673 68.6721 113.589 68.6721C113.434 68.6721 113.31 68.617 113.215 68.5055C113.12 68.3954 113.074 68.2799 113.074 68.1606C113.074 68.0924 113.083 68.0242 113.1 67.956L115.61 61.6915L116.279 60.0676V60.0807C116.322 59.9863 116.389 59.9037 116.479 59.8315C116.569 59.7594 116.67 59.7227 116.781 59.7227C116.875 59.7227 116.97 59.7581 117.064 59.8315C117.157 59.9037 117.226 59.9863 117.27 60.0807V60.0676L120.446 67.956ZM118.361 65.654L116.778 61.6403L115.17 65.654H118.361Z" fill="#13383F"/>
<path d="M123.458 68.6702C123.311 68.6702 123.186 68.619 123.077 68.5167C122.97 68.4144 122.916 68.295 122.916 68.1586V60.2323C122.916 60.0958 122.97 59.9765 123.077 59.8742C123.184 59.7719 123.311 59.7207 123.458 59.7207C123.603 59.7207 123.728 59.7719 123.83 59.8742C123.933 59.9765 123.984 60.0958 123.984 60.2323V67.6208H127.021C127.175 67.6208 127.306 67.672 127.413 67.7743C127.52 67.8766 127.574 68.0038 127.574 68.1586C127.574 68.295 127.52 68.4144 127.413 68.5167C127.306 68.619 127.175 68.6702 127.021 68.6702H123.458Z" fill="#13383F"/>
<path d="M139.117 68.6702C138.525 68.6702 137.967 68.5534 137.444 68.3186C136.921 68.0839 136.464 67.7651 136.074 67.3598C135.684 66.9545 135.375 66.4797 135.147 65.934C134.92 65.3884 134.806 64.8086 134.806 64.1961C134.806 63.5822 134.92 63.0051 135.147 62.4634C135.374 61.923 135.683 61.4469 136.074 61.0376C136.464 60.6284 136.921 60.307 137.444 60.0722C137.967 59.8374 138.525 59.7207 139.117 59.7207C139.708 59.7207 140.267 59.8374 140.789 60.0722C141.312 60.307 141.768 60.6284 142.153 61.0376C142.54 61.4469 142.846 61.9217 143.073 62.4634C143.3 63.0051 143.414 63.5822 143.414 64.1961C143.414 64.8099 143.3 65.3897 143.073 65.934C142.846 66.4797 142.54 66.9545 142.153 67.3598C141.768 67.7651 141.312 68.0839 140.789 68.3186C140.265 68.5534 139.708 68.6702 139.117 68.6702ZM139.117 60.77C138.661 60.77 138.237 60.8592 137.843 61.0389C137.448 61.2173 137.105 61.4613 136.813 61.7682C136.521 62.0751 136.29 62.4372 136.118 62.8556C135.947 63.2727 135.861 63.72 135.861 64.1974C135.861 64.6748 135.947 65.1221 136.118 65.5392C136.29 65.9563 136.521 66.3197 136.813 66.6266C137.105 66.9335 137.448 67.1762 137.843 67.3546C138.237 67.533 138.661 67.6235 139.117 67.6235C139.563 67.6235 139.983 67.5343 140.377 67.3546C140.772 67.1762 141.117 66.9322 141.413 66.6266C141.708 66.3197 141.941 65.9577 142.108 65.5392C142.276 65.1221 142.359 64.6748 142.359 64.1974C142.359 63.72 142.276 63.2727 142.108 62.8556C141.941 62.4385 141.71 62.0751 141.413 61.7682C141.115 61.4613 140.771 61.2186 140.377 61.0389C139.983 60.8592 139.562 60.77 139.117 60.77Z" fill="#13383F"/>
<path d="M151.352 67.8668L151.34 67.8536C151.358 67.9048 151.375 67.956 151.392 68.0071C151.409 68.0583 151.417 68.1094 151.417 68.1606C151.417 68.2367 151.393 68.318 151.347 68.4032C151.3 68.4885 151.238 68.5567 151.161 68.6079C151.092 68.6511 151.006 68.6721 150.903 68.6721C150.69 68.6721 150.535 68.5908 150.44 68.4295L148.6 65.515H146.849V68.1606C146.849 68.297 146.798 68.4164 146.695 68.5187C146.592 68.621 146.468 68.6721 146.321 68.6721C146.174 68.6721 146.053 68.621 145.954 68.5187C145.855 68.4164 145.806 68.297 145.806 68.1606V60.2342C145.806 60.0978 145.855 59.9784 145.954 59.8761C146.053 59.7738 146.174 59.7227 146.321 59.7227H148.495C148.538 59.7227 148.701 59.741 148.984 59.7804C149.268 59.8184 149.585 59.9194 149.936 60.0807H149.924C150.387 60.3273 150.752 60.671 151.017 61.1091C151.282 61.5485 151.416 62.0482 151.416 62.6109C151.416 62.6359 151.413 62.6923 151.409 62.7775C151.404 62.8628 151.389 62.9716 151.364 63.1028C151.339 63.2353 151.302 63.3848 151.255 63.5501C151.207 63.7154 151.141 63.8846 151.055 64.0551C150.935 64.3017 150.761 64.5286 150.534 64.7332C150.307 64.9378 150.039 65.1254 149.73 65.2959L151.352 67.8668ZM146.849 64.4656H148.497C148.882 64.4656 149.208 64.3935 149.475 64.2479C149.74 64.1036 149.952 63.8937 150.106 63.6222C150.165 63.512 150.213 63.3979 150.247 63.2825C150.282 63.1671 150.307 63.0608 150.325 62.9638C150.342 62.8654 150.353 62.7854 150.357 62.7211C150.361 62.6568 150.364 62.6214 150.364 62.6122C150.364 61.8541 150.059 61.3163 149.45 61.0015C149.33 60.9425 149.214 60.8966 149.103 60.8677C148.992 60.8376 148.889 60.814 148.794 60.7969C148.691 60.7799 148.592 60.772 148.498 60.772H146.85V64.4656H146.849Z" fill="#13383F"/>
<path d="M160.051 67.2129C160.154 67.1709 160.24 67.1486 160.309 67.1486C160.402 67.1486 160.492 67.1723 160.579 67.2195C160.665 67.2667 160.73 67.3362 160.772 67.4307C160.841 67.55 160.851 67.6825 160.804 67.8268C160.756 67.9724 160.677 68.0786 160.566 68.1468L160.579 68.1337C160.253 68.2963 159.903 68.4262 159.531 68.5233C159.157 68.6216 158.786 68.6702 158.418 68.6702C157.8 68.6702 157.217 68.5534 156.669 68.3186C156.12 68.0839 155.642 67.7651 155.234 67.3598C154.826 66.9545 154.505 66.4797 154.269 65.934C154.032 65.3884 153.915 64.8086 153.915 64.1961C153.915 63.5822 154.032 63.0051 154.269 62.4634C154.505 61.923 154.826 61.4469 155.234 61.0376C155.642 60.6284 156.12 60.307 156.669 60.0722C157.218 59.8374 157.802 59.7207 158.418 59.7207C158.786 59.7207 159.159 59.7745 159.531 59.8807C159.903 59.987 160.253 60.1129 160.579 60.2585L160.566 60.2454C160.686 60.3214 160.769 60.4303 160.817 60.5707C160.864 60.711 160.85 60.8461 160.772 60.9733C160.677 61.1517 160.524 61.2422 160.309 61.2422C160.223 61.2422 160.137 61.2212 160.051 61.178H160.064C159.833 61.0494 159.573 60.9497 159.285 60.8776C158.998 60.8054 158.708 60.7687 158.417 60.7687C157.945 60.7687 157.502 60.8579 157.085 61.0376C156.669 61.216 156.304 61.46 155.99 61.7669C155.677 62.0738 155.429 62.4358 155.244 62.8543C155.059 63.2714 154.968 63.7186 154.968 64.1961C154.968 64.6735 155.061 65.1208 155.244 65.5379C155.429 65.955 155.677 66.3184 155.99 66.6253C156.303 66.9322 156.667 67.1749 157.085 67.3533C157.5 67.5316 157.944 67.6222 158.417 67.6222C158.716 67.6222 159.007 67.5894 159.285 67.5264C159.564 67.4621 159.824 67.3585 160.064 67.2129H160.051Z" fill="#13383F"/>
<path d="M168.98 59.7227C169.126 59.7227 169.251 59.7738 169.353 59.8761C169.456 59.9784 169.508 60.0978 169.508 60.2342V68.1606C169.508 68.297 169.456 68.4164 169.353 68.5187C169.251 68.621 169.126 68.6721 168.98 68.6721C168.833 68.6721 168.709 68.621 168.608 68.5187C168.505 68.4164 168.453 68.297 168.453 68.1606V64.7083H164.349V68.1606C164.349 68.297 164.297 68.4164 164.194 68.5187C164.091 68.621 163.967 68.6721 163.82 68.6721C163.674 68.6721 163.549 68.621 163.442 68.5187C163.335 68.4164 163.281 68.297 163.281 68.1606V60.2342C163.281 60.0978 163.335 59.9784 163.442 59.8761C163.549 59.7738 163.675 59.7227 163.82 59.7227C163.966 59.7227 164.091 59.7738 164.194 59.8761C164.297 59.9784 164.349 60.0978 164.349 60.2342V63.6852H168.453V60.2342C168.453 60.0978 168.505 59.9784 168.608 59.8761C168.711 59.7738 168.835 59.7227 168.98 59.7227Z" fill="#13383F"/>
<path d="M179.351 67.956C179.368 68.0242 179.378 68.0924 179.378 68.1606C179.378 68.2878 179.333 68.4059 179.243 68.5121C179.153 68.6183 179.027 68.6721 178.863 68.6721C178.769 68.6721 178.671 68.6367 178.574 68.5633C178.476 68.4898 178.405 68.4085 178.361 68.314V68.3272L177.705 66.7033H173.639C173.545 66.9499 173.438 67.2214 173.318 67.5152C173.198 67.809 173.087 68.0793 172.983 68.3272C172.94 68.4124 172.869 68.4911 172.77 68.5633C172.671 68.6354 172.579 68.6721 172.494 68.6721C172.34 68.6721 172.216 68.617 172.121 68.5055C172.025 68.3954 171.979 68.2799 171.979 68.1606C171.979 68.0924 171.988 68.0242 172.006 67.956L174.515 61.6915L175.185 60.0676V60.0807C175.227 59.9863 175.294 59.9037 175.384 59.8315C175.474 59.7594 175.576 59.7227 175.686 59.7227C175.78 59.7227 175.875 59.7581 175.969 59.8315C176.063 59.9037 176.131 59.9863 176.175 60.0807V60.0676L179.351 67.956ZM177.267 65.654L175.684 61.6403L174.076 65.654H177.267Z" fill="#13383F"/>
<path d="M187.368 67.8668L187.356 67.8536C187.373 67.9048 187.39 67.956 187.407 68.0071C187.425 68.0583 187.432 68.1094 187.432 68.1606C187.432 68.2367 187.409 68.318 187.362 68.4032C187.315 68.4885 187.253 68.5567 187.176 68.6079C187.108 68.6511 187.022 68.6721 186.919 68.6721C186.705 68.6721 186.551 68.5908 186.455 68.4295L184.615 65.515H182.865V68.1606C182.865 68.297 182.813 68.4164 182.71 68.5187C182.607 68.621 182.483 68.6721 182.336 68.6721C182.19 68.6721 182.068 68.621 181.969 68.5187C181.87 68.4164 181.822 68.297 181.822 68.1606V60.2342C181.822 60.0978 181.87 59.9784 181.969 59.8761C182.068 59.7738 182.19 59.7227 182.336 59.7227H184.511C184.553 59.7227 184.717 59.741 184.999 59.7804C185.283 59.8184 185.6 59.9194 185.951 60.0807H185.939C186.403 60.3273 186.767 60.671 187.032 61.1091C187.298 61.5485 187.431 62.0482 187.431 62.6109C187.431 62.6359 187.428 62.6923 187.425 62.7775C187.419 62.8628 187.405 62.9716 187.38 63.1028C187.355 63.2353 187.318 63.3848 187.27 63.5501C187.223 63.7154 187.157 63.8846 187.071 64.0551C186.951 64.3017 186.776 64.5286 186.549 64.7332C186.322 64.9378 186.054 65.1254 185.745 65.2959L187.368 67.8668ZM182.865 64.4656H184.512C184.898 64.4656 185.224 64.3935 185.49 64.2479C185.756 64.1036 185.967 63.8937 186.121 63.6222C186.181 63.512 186.228 63.3979 186.263 63.2825C186.297 63.1671 186.322 63.0608 186.341 62.9638C186.358 62.8654 186.368 62.7854 186.372 62.7211C186.376 62.6568 186.379 62.6214 186.379 62.6122C186.379 61.8541 186.074 61.3163 185.465 61.0015C185.345 60.9425 185.229 60.8966 185.118 60.8677C185.007 60.8376 184.904 60.814 184.809 60.7969C184.706 60.7799 184.607 60.772 184.513 60.772H182.866V64.4656H182.865Z" fill="#13383F"/>
<path d="M190.442 68.6702C190.305 68.6702 190.185 68.619 190.082 68.5167C189.979 68.4144 189.927 68.295 189.927 68.1586V60.2323C189.927 60.0958 189.979 59.9765 190.082 59.8742C190.185 59.7719 190.305 59.7207 190.442 59.7207H192.758C192.766 59.7207 192.868 59.7273 193.06 59.7391C193.253 59.7522 193.491 59.7981 193.775 59.8794C194.057 59.9607 194.362 60.0906 194.688 60.269C195.014 60.4474 195.314 60.7031 195.589 61.0363C195.863 61.3695 196.093 61.7905 196.276 62.3021C196.461 62.8136 196.554 63.4445 196.554 64.1935C196.554 64.9424 196.461 65.5733 196.276 66.0849C196.092 66.5964 195.862 67.0175 195.589 67.3506C195.314 67.6838 195.013 67.9383 194.688 68.118C194.362 68.2964 194.058 68.4275 193.775 68.5075C193.491 68.5888 193.253 68.6361 193.06 68.6479C192.868 68.661 192.766 68.6676 192.758 68.6676H190.442V68.6702ZM190.996 67.6222H192.758C192.775 67.6222 192.827 67.6182 192.912 67.609C192.998 67.5999 193.105 67.5815 193.235 67.5513C193.363 67.5212 193.509 67.4739 193.672 67.411C193.834 67.3467 194.002 67.2641 194.173 67.1618C194.593 66.8798 194.919 66.4889 195.152 65.9852C195.383 65.4828 195.499 64.886 195.499 64.1961C195.499 63.4799 195.379 62.8713 195.138 62.3676C194.898 61.864 194.555 61.4731 194.109 61.1911C193.954 61.0888 193.796 61.0101 193.632 60.955C193.468 60.8999 193.323 60.8592 193.195 60.833C193.066 60.8068 192.92 60.7858 192.758 60.7687H190.996V67.6222Z" fill="#13383F"/>
<path d="M201.791 63.3016C201.85 63.3187 201.953 63.3567 202.1 63.4171C202.245 63.4761 202.413 63.5561 202.602 63.6532C202.79 63.7515 202.987 63.8709 203.193 64.0112C203.399 64.1516 203.592 64.3116 203.773 64.4913C203.952 64.6697 204.107 64.8677 204.236 65.0855C204.366 65.3032 204.446 65.5393 204.48 65.7951V65.9236C204.48 66.2725 204.412 66.6123 204.274 66.9402C204.137 67.2681 203.944 67.5567 203.695 67.8032C203.42 68.0761 203.098 68.2846 202.73 68.4289C202.361 68.5745 201.971 68.6466 201.559 68.6466H201.456C200.933 68.6296 200.456 68.4827 200.027 68.2059C199.598 67.9292 199.276 67.5567 199.062 67.0871C199.037 67.0359 199.024 66.9638 199.024 66.8693C199.024 66.7749 199.054 66.6818 199.114 66.5873C199.173 66.4942 199.264 66.4208 199.384 66.3696C199.402 66.3526 199.453 66.3434 199.539 66.3434C199.642 66.3434 199.738 66.3696 199.828 66.4208C199.918 66.4719 199.984 66.5441 200.027 66.6385C200.165 66.9376 200.364 67.1684 200.625 67.335C200.887 67.5016 201.18 67.5881 201.507 67.5973H201.572C202.138 67.5973 202.589 67.4229 202.923 67.0727C203.266 66.7487 203.437 66.3657 203.437 65.9223V65.8712C203.42 65.6757 203.336 65.4895 203.187 65.315C203.036 65.1406 202.86 64.9832 202.658 64.8415C202.456 64.7012 202.248 64.5792 202.034 64.4769C201.82 64.3746 201.639 64.3024 201.494 64.2591L201.507 64.2723C201.439 64.246 201.391 64.2342 201.366 64.2342C200.14 63.7909 199.526 63.0157 199.526 61.9073V61.805C199.543 61.4981 199.621 61.2135 199.758 60.9485C199.895 60.6849 200.092 60.454 200.349 60.2586C200.573 60.0802 200.83 59.9425 201.122 59.8493C201.414 59.7562 201.722 59.709 202.049 59.709H202.178C202.426 59.7182 202.677 59.768 202.93 59.8625C203.184 59.9569 203.418 60.0802 203.631 60.2336C203.674 60.2927 203.724 60.3635 203.779 60.4448C203.835 60.5261 203.863 60.597 203.863 60.656C203.863 60.7845 203.82 60.8908 203.734 60.9747C203.622 61.1112 203.481 61.1794 203.309 61.1794C203.266 61.1794 203.214 61.1728 203.155 61.1597C203.095 61.1479 203.044 61.119 203 61.077C202.88 60.9918 202.74 60.9196 202.582 60.8593C202.423 60.8003 202.27 60.7662 202.125 60.757H202.022C201.61 60.757 201.267 60.8593 200.994 61.0639C200.719 61.2685 200.578 61.5322 200.569 61.8562V61.9073C200.569 62.1198 200.603 62.2995 200.672 62.4438C200.74 62.5881 200.833 62.7127 200.947 62.8137C201.064 62.916 201.192 63.0039 201.334 63.076C201.477 63.1482 201.623 63.2151 201.778 63.2741L201.791 63.3016Z" fill="#13383F"/>
<defs>
<linearGradient id="paint0_linear_536_1458" x1="102.438" y1="70.5259" x2="167.239" y2="7.45283" gradientUnits="userSpaceOnUse">
<stop offset="0.0588" stop-color="#196E30"/>
<stop offset="0.8687" stop-color="#10A53A"/>
</linearGradient>
<linearGradient id="paint1_linear_536_1458" x1="115.662" y1="84.1146" x2="180.463" y2="21.0415" gradientUnits="userSpaceOnUse">
<stop offset="0.0588" stop-color="#196E30"/>
<stop offset="0.8687" stop-color="#10A53A"/>
</linearGradient>
<linearGradient id="paint2_linear_536_1458" x1="185.114" y1="24.5627" x2="217.222" y2="44.0049" gradientUnits="userSpaceOnUse">
<stop offset="0.0588" stop-color="#E73C17"/>
<stop offset="0.8687" stop-color="#F28E00"/>
</linearGradient>
<linearGradient id="paint3_linear_536_1458" x1="196.872" y1="14.4199" x2="214.024" y2="5.59384" gradientUnits="userSpaceOnUse">
<stop offset="0.0588" stop-color="#196E30"/>
<stop offset="0.8687" stop-color="#10A53A"/>
</linearGradient>
</defs>
</svg>
