<svg width="228" height="72" viewBox="0 0 228 72" fill="none" xmlns="http://www.w3.org/2000/svg">
<path d="M87.6858 21.68L97.1258 36.56H94.0058L92.1458 33.64H81.5258L79.6658 36.56H76.5258L85.9658 21.68H87.6858ZM83.1658 31H90.4858C90.1658 30.5067 89.8658 30.04 89.5858 29.6C89.3058 29.16 89.0258 28.7133 88.7458 28.26C88.4658 27.8067 88.1658 27.3333 87.8458 26.84C87.5391 26.3467 87.1991 25.8 86.8258 25.2L83.1658 31ZM114.787 21.68L117.327 36.56H114.647L112.907 26.2L106.707 35.28L100.547 26.22L98.7866 36.56H96.1266L98.6666 21.68H100.687L106.707 30.56L112.767 21.68H114.787ZM127.407 37.14C126.02 37.14 124.76 36.9467 123.627 36.56C122.507 36.1733 121.547 35.6333 120.747 34.94C119.947 34.2333 119.327 33.3867 118.887 32.4C118.447 31.4133 118.227 30.32 118.227 29.12C118.227 27.92 118.447 26.8267 118.887 25.84C119.327 24.84 119.947 23.9867 120.747 23.28C121.547 22.5733 122.507 22.0267 123.627 21.64C124.76 21.2533 126.02 21.06 127.407 21.06C128.78 21.06 130.027 21.2533 131.147 21.64C132.28 22.0267 133.247 22.5733 134.047 23.28C134.847 23.9867 135.467 24.84 135.907 25.84C136.347 26.8267 136.567 27.92 136.567 29.12C136.567 30.32 136.347 31.4133 135.907 32.4C135.467 33.3867 134.847 34.2333 134.047 34.94C133.247 35.6333 132.28 36.1733 131.147 36.56C130.027 36.9467 128.78 37.14 127.407 37.14ZM127.407 23.68C126.433 23.68 125.54 23.8133 124.727 24.08C123.927 24.3333 123.24 24.7 122.667 25.18C122.093 25.66 121.647 26.2333 121.327 26.9C121.02 27.5667 120.867 28.3067 120.867 29.12C120.867 29.92 121.02 30.6533 121.327 31.32C121.647 31.9867 122.093 32.56 122.667 33.04C123.24 33.52 123.927 33.8933 124.727 34.16C125.54 34.4133 126.433 34.54 127.407 34.54C128.38 34.54 129.267 34.4133 130.067 34.16C130.867 33.8933 131.553 33.52 132.127 33.04C132.7 32.56 133.14 31.9867 133.447 31.32C133.767 30.6533 133.927 29.92 133.927 29.12C133.927 28.3067 133.767 27.5667 133.447 26.9C133.14 26.2333 132.7 25.66 132.127 25.18C131.553 24.7 130.867 24.3333 130.067 24.08C129.267 23.8133 128.38 23.68 127.407 23.68ZM155.018 24.3H147.198V36.56H144.558V24.3H136.738V21.68H155.018V24.3ZM157.884 36.56H155.224V21.68H166.324C167.124 21.68 167.844 21.8 168.484 22.04C169.137 22.28 169.69 22.62 170.144 23.06C170.61 23.4867 170.97 24.0067 171.224 24.62C171.477 25.2333 171.604 25.9133 171.604 26.66C171.604 27.8467 171.31 28.8467 170.724 29.66C170.137 30.46 169.344 31.0333 168.344 31.38L170.944 36.56H168.004L165.464 31.66H157.884V36.56ZM157.884 29H166.324C167.124 29 167.764 28.7933 168.244 28.38C168.724 27.9533 168.964 27.38 168.964 26.66C168.964 25.94 168.724 25.3667 168.244 24.94C167.764 24.5133 167.124 24.3 166.324 24.3H157.884V29ZM182.08 21.68L191.52 36.56H188.4L186.54 33.64H175.92L174.06 36.56H170.92L180.36 21.68H182.08ZM177.56 31H184.88C184.56 30.5067 184.26 30.04 183.98 29.6C183.7 29.16 183.42 28.7133 183.14 28.26C182.86 27.8067 182.56 27.3333 182.24 26.84C181.934 26.3467 181.594 25.8 181.22 25.2L177.56 31ZM204.901 21.68H207.541V36.56H205.461L193.821 25.74V36.56H191.161V21.68H193.281L204.901 32.48V21.68ZM218.151 37.14C217.244 37.14 216.324 37.0667 215.391 36.92C214.457 36.7733 213.551 36.5467 212.671 36.24C211.791 35.9467 210.964 35.58 210.191 35.14C209.417 34.6867 208.731 34.1533 208.131 33.54L209.951 31.7C210.431 32.18 210.991 32.6 211.631 32.96C212.271 33.32 212.951 33.62 213.671 33.86C214.391 34.0867 215.131 34.26 215.891 34.38C216.651 34.4867 217.404 34.54 218.151 34.54C219.631 34.54 220.791 34.3933 221.631 34.1C222.484 33.7933 223.084 33.4467 223.431 33.06C223.844 32.62 223.997 32.2133 223.891 31.84C223.797 31.4533 223.484 31.12 222.951 30.84C222.417 30.56 221.691 30.34 220.771 30.18C219.851 30.02 218.777 29.94 217.551 29.94C216.351 29.9 215.271 29.7667 214.311 29.54C213.351 29.3 212.531 28.9933 211.851 28.62C211.171 28.2333 210.637 27.7867 210.251 27.28C209.864 26.7733 209.631 26.2267 209.551 25.64C209.564 24.92 209.751 24.28 210.111 23.72C210.484 23.1467 210.997 22.6667 211.651 22.28C212.304 21.88 213.091 21.58 214.011 21.38C214.931 21.1667 215.957 21.06 217.091 21.06C217.864 21.06 218.644 21.1133 219.431 21.22C220.231 21.3267 221.017 21.5 221.791 21.74C222.577 21.9667 223.344 22.2667 224.091 22.64C224.837 23.0133 225.551 23.4733 226.231 24.02L224.351 25.9C223.831 25.4733 223.271 25.12 222.671 24.84C222.084 24.5467 221.477 24.32 220.851 24.16C220.237 23.9867 219.611 23.8667 218.971 23.8C218.344 23.72 217.717 23.68 217.091 23.68C216.424 23.68 215.797 23.7333 215.211 23.84C214.624 23.9333 214.104 24.0667 213.651 24.24C213.211 24.4 212.857 24.6 212.591 24.84C212.324 25.0667 212.191 25.3133 212.191 25.58C212.191 26.06 212.664 26.4533 213.611 26.76C214.557 27.0667 215.904 27.2533 217.651 27.32C219.224 27.3867 220.564 27.5267 221.671 27.74C222.791 27.9533 223.704 28.26 224.411 28.66C225.117 29.0467 225.631 29.5333 225.951 30.12C226.271 30.6933 226.431 31.38 226.431 32.18C226.431 32.8067 226.251 33.42 225.891 34.02C225.544 34.6067 225.017 35.1333 224.311 35.6C223.617 36.0533 222.757 36.42 221.731 36.7C220.704 36.9933 219.511 37.14 218.151 37.14Z" fill="#033641"/>
<path d="M92.1411 50.099H83.3961V42.245H83.9681V49.527H92.1411V50.099ZM96.9359 50.462C96.2685 50.462 95.6599 50.374 95.1099 50.198C94.5672 50.0293 94.0979 49.791 93.7019 49.483C93.3132 49.1677 93.0125 48.7937 92.7999 48.361C92.5872 47.921 92.4809 47.4333 92.4809 46.898C92.4809 46.3627 92.5872 45.8787 92.7999 45.446C93.0125 45.006 93.3132 44.632 93.7019 44.324C94.0979 44.0087 94.5672 43.7667 95.1099 43.598C95.6599 43.4293 96.2685 43.345 96.9359 43.345C97.6032 43.345 98.2082 43.4293 98.7509 43.598C99.3009 43.7667 99.7702 44.0087 100.159 44.324C100.548 44.632 100.848 45.006 101.061 45.446C101.281 45.8787 101.391 46.3627 101.391 46.898C101.391 47.4333 101.281 47.921 101.061 48.361C100.848 48.7937 100.548 49.1677 100.159 49.483C99.7702 49.791 99.3009 50.0293 98.7509 50.198C98.2082 50.374 97.6032 50.462 96.9359 50.462ZM96.9359 43.906C96.3492 43.906 95.8175 43.9793 95.3409 44.126C94.8642 44.2653 94.4535 44.467 94.1089 44.731C93.7715 44.995 93.5075 45.3103 93.3169 45.677C93.1335 46.0437 93.0419 46.4507 93.0419 46.898C93.0419 47.3527 93.1335 47.7633 93.3169 48.13C93.5075 48.4967 93.7715 48.812 94.1089 49.076C94.4535 49.34 94.8642 49.5453 95.3409 49.692C95.8175 49.8313 96.3492 49.901 96.9359 49.901C97.5152 49.901 98.0432 49.8313 98.5199 49.692C99.0039 49.5453 99.4145 49.34 99.7519 49.076C100.097 48.812 100.361 48.4967 100.544 48.13C100.735 47.7633 100.83 47.3527 100.83 46.898C100.83 46.4507 100.735 46.0437 100.544 45.677C100.361 45.3103 100.097 44.995 99.7519 44.731C99.4145 44.467 99.0039 44.2653 98.5199 44.126C98.0432 43.9793 97.5152 43.906 96.9359 43.906ZM106.088 51.793C105.354 51.793 104.658 51.7087 103.998 51.54C103.345 51.3713 102.788 51.122 102.326 50.792L102.645 50.363C102.828 50.5023 103.044 50.627 103.294 50.737C103.55 50.8543 103.825 50.9497 104.119 51.023C104.412 51.1037 104.724 51.1623 105.054 51.199C105.384 51.243 105.721 51.2613 106.066 51.254C107.349 51.2393 108.295 51.0083 108.904 50.561C109.52 50.1137 109.828 49.4903 109.828 48.691L110.004 48.196C109.688 48.658 109.204 49.0247 108.552 49.296C107.906 49.56 107.114 49.6847 106.176 49.67C105.552 49.6627 104.984 49.5893 104.471 49.45C103.965 49.3107 103.528 49.1127 103.162 48.856C102.802 48.592 102.52 48.2767 102.315 47.91C102.117 47.536 102.018 47.118 102.018 46.656C102.018 46.238 102.106 45.831 102.282 45.435C102.458 45.039 102.725 44.687 103.085 44.379C103.451 44.0637 103.913 43.8143 104.471 43.631C105.035 43.4403 105.703 43.345 106.473 43.345C107.184 43.345 107.826 43.4403 108.398 43.631C108.977 43.8217 109.454 44.093 109.828 44.445V43.708H110.389V48.922C110.389 49.3767 110.29 49.78 110.092 50.132C109.894 50.484 109.611 50.7847 109.245 51.034C108.878 51.2833 108.427 51.4703 107.892 51.595C107.356 51.727 106.755 51.793 106.088 51.793ZM106.407 49.153C107.169 49.153 107.848 49.0393 108.442 48.812C109.036 48.5847 109.498 48.262 109.828 47.844V45.182C109.498 44.764 109.047 44.4487 108.475 44.236C107.903 44.016 107.235 43.906 106.473 43.906C105.886 43.906 105.354 43.972 104.878 44.104C104.401 44.236 103.99 44.423 103.646 44.665C103.308 44.8997 103.044 45.1857 102.854 45.523C102.67 45.8603 102.579 46.238 102.579 46.656C102.579 47.0373 102.667 47.382 102.843 47.69C103.019 47.998 103.272 48.262 103.602 48.482C103.932 48.6947 104.331 48.8597 104.801 48.977C105.277 49.0943 105.813 49.153 106.407 49.153ZM112.151 50.099H111.59V43.73H112.151V50.099ZM111.436 42.41C111.436 42.2853 111.476 42.179 111.557 42.091C111.638 42.003 111.74 41.959 111.865 41.959C111.99 41.959 112.096 42.003 112.184 42.091C112.272 42.179 112.316 42.2853 112.316 42.41C112.316 42.5347 112.272 42.6373 112.184 42.718C112.096 42.7987 111.99 42.839 111.865 42.839C111.74 42.839 111.638 42.7987 111.557 42.718C111.476 42.6373 111.436 42.5347 111.436 42.41ZM117.351 50.462C116.83 50.462 116.35 50.4253 115.91 50.352C115.47 50.286 115.066 50.1907 114.7 50.066C114.333 49.9487 113.999 49.8093 113.699 49.648C113.405 49.4867 113.145 49.318 112.918 49.142L113.226 48.68C113.651 49.0173 114.205 49.307 114.887 49.549C115.569 49.7837 116.39 49.901 117.351 49.901C118.018 49.901 118.597 49.857 119.089 49.769C119.587 49.6737 119.998 49.5527 120.321 49.406C120.643 49.252 120.882 49.076 121.036 48.878C121.197 48.68 121.281 48.4747 121.289 48.262C121.289 48.042 121.219 47.855 121.08 47.701C120.94 47.547 120.717 47.4187 120.409 47.316C120.101 47.2133 119.697 47.1363 119.199 47.085C118.707 47.0263 118.11 46.986 117.406 46.964C116.907 46.9493 116.427 46.92 115.965 46.876C115.51 46.8247 115.107 46.744 114.755 46.634C114.403 46.5167 114.12 46.3627 113.908 46.172C113.695 45.974 113.589 45.7137 113.589 45.391C113.589 45.083 113.68 44.8043 113.864 44.555C114.054 44.2983 114.318 44.082 114.656 43.906C115 43.73 115.415 43.5943 115.899 43.499C116.383 43.3963 116.925 43.345 117.527 43.345C117.901 43.345 118.275 43.367 118.649 43.411C119.023 43.455 119.378 43.5173 119.716 43.598C120.06 43.6787 120.376 43.7777 120.662 43.895C120.948 44.005 121.19 44.1333 121.388 44.28L121.069 44.742C120.893 44.61 120.676 44.4927 120.42 44.39C120.163 44.2873 119.877 44.203 119.562 44.137C119.246 44.0637 118.916 44.0087 118.572 43.972C118.227 43.928 117.879 43.906 117.527 43.906C117.013 43.906 116.548 43.9427 116.13 44.016C115.712 44.082 115.356 44.181 115.063 44.313C114.769 44.4377 114.542 44.5917 114.381 44.775C114.227 44.9583 114.15 45.1637 114.15 45.391C114.15 45.589 114.241 45.7503 114.425 45.875C114.608 45.9997 114.85 46.0987 115.151 46.172C115.459 46.2453 115.807 46.3003 116.196 46.337C116.592 46.3663 117.002 46.3883 117.428 46.403C118.242 46.4323 118.931 46.4873 119.496 46.568C120.06 46.6413 120.519 46.7513 120.871 46.898C121.223 47.0373 121.476 47.2207 121.63 47.448C121.784 47.668 121.857 47.9357 121.85 48.251C121.842 48.5883 121.729 48.8927 121.509 49.164C121.296 49.4353 120.992 49.67 120.596 49.868C120.207 50.0587 119.738 50.2053 119.188 50.308C118.638 50.4107 118.025 50.462 117.351 50.462ZM127.061 44.445H123.75V48.317C123.75 48.8157 123.893 49.2043 124.179 49.483C124.473 49.7617 124.876 49.901 125.389 49.901C125.551 49.901 125.734 49.8827 125.939 49.846C126.145 49.802 126.379 49.7323 126.643 49.637L126.786 50.187C126.508 50.2897 126.251 50.3593 126.016 50.396C125.789 50.44 125.58 50.462 125.389 50.462C124.7 50.462 124.161 50.2713 123.772 49.89C123.391 49.5087 123.2 48.9843 123.2 48.317V44.445H121.902V43.884H123.2V42.377H123.75V43.884H127.061V44.445ZM128.135 50.099H127.574V43.73H128.135V50.099ZM127.42 42.41C127.42 42.2853 127.461 42.179 127.541 42.091C127.622 42.003 127.725 41.959 127.849 41.959C127.974 41.959 128.08 42.003 128.168 42.091C128.256 42.179 128.3 42.2853 128.3 42.41C128.3 42.5347 128.256 42.6373 128.168 42.718C128.08 42.7987 127.974 42.839 127.849 42.839C127.725 42.839 127.622 42.7987 127.541 42.718C127.461 42.6373 127.42 42.5347 127.42 42.41ZM133.599 50.462C132.932 50.462 132.323 50.374 131.773 50.198C131.23 50.0293 130.761 49.791 130.365 49.483C129.976 49.1677 129.676 48.7937 129.463 48.361C129.25 47.921 129.144 47.4333 129.144 46.898C129.144 46.3627 129.25 45.8787 129.463 45.446C129.676 45.006 129.976 44.632 130.365 44.324C130.761 44.0087 131.23 43.7667 131.773 43.598C132.323 43.4293 132.932 43.345 133.599 43.345C134.472 43.345 135.242 43.488 135.909 43.774C136.584 44.06 137.13 44.5 137.548 45.094L137.086 45.413C136.734 44.907 136.261 44.5293 135.667 44.28C135.073 44.0307 134.384 43.906 133.599 43.906C133.012 43.906 132.481 43.9793 132.004 44.126C131.527 44.2653 131.117 44.467 130.772 44.731C130.435 44.995 130.171 45.3103 129.98 45.677C129.797 46.0437 129.705 46.4507 129.705 46.898C129.705 47.3527 129.797 47.7633 129.98 48.13C130.171 48.4967 130.435 48.812 130.772 49.076C131.117 49.34 131.527 49.5453 132.004 49.692C132.481 49.8313 133.012 49.901 133.599 49.901C134.376 49.901 135.066 49.7763 135.667 49.527C136.276 49.2777 136.752 48.911 137.097 48.427L137.559 48.746C137.163 49.3107 136.62 49.736 135.931 50.022C135.242 50.3153 134.464 50.462 133.599 50.462ZM142.262 50.462C141.741 50.462 141.261 50.4253 140.821 50.352C140.381 50.286 139.977 50.1907 139.611 50.066C139.244 49.9487 138.91 49.8093 138.61 49.648C138.316 49.4867 138.056 49.318 137.829 49.142L138.137 48.68C138.562 49.0173 139.116 49.307 139.798 49.549C140.48 49.7837 141.301 49.901 142.262 49.901C142.929 49.901 143.508 49.857 144 49.769C144.498 49.6737 144.909 49.5527 145.232 49.406C145.554 49.252 145.793 49.076 145.947 48.878C146.108 48.68 146.192 48.4747 146.2 48.262C146.2 48.042 146.13 47.855 145.991 47.701C145.851 47.547 145.628 47.4187 145.32 47.316C145.012 47.2133 144.608 47.1363 144.11 47.085C143.618 47.0263 143.021 46.986 142.317 46.964C141.818 46.9493 141.338 46.92 140.876 46.876C140.421 46.8247 140.018 46.744 139.666 46.634C139.314 46.5167 139.031 46.3627 138.819 46.172C138.606 45.974 138.5 45.7137 138.5 45.391C138.5 45.083 138.591 44.8043 138.775 44.555C138.965 44.2983 139.229 44.082 139.567 43.906C139.911 43.73 140.326 43.5943 140.81 43.499C141.294 43.3963 141.836 43.345 142.438 43.345C142.812 43.345 143.186 43.367 143.56 43.411C143.934 43.455 144.289 43.5173 144.627 43.598C144.971 43.6787 145.287 43.7777 145.573 43.895C145.859 44.005 146.101 44.1333 146.299 44.28L145.98 44.742C145.804 44.61 145.587 44.4927 145.331 44.39C145.074 44.2873 144.788 44.203 144.473 44.137C144.157 44.0637 143.827 44.0087 143.483 43.972C143.138 43.928 142.79 43.906 142.438 43.906C141.924 43.906 141.459 43.9427 141.041 44.016C140.623 44.082 140.267 44.181 139.974 44.313C139.68 44.4377 139.453 44.5917 139.292 44.775C139.138 44.9583 139.061 45.1637 139.061 45.391C139.061 45.589 139.152 45.7503 139.336 45.875C139.519 45.9997 139.761 46.0987 140.062 46.172C140.37 46.2453 140.718 46.3003 141.107 46.337C141.503 46.3663 141.913 46.3883 142.339 46.403C143.153 46.4323 143.842 46.4873 144.407 46.568C144.971 46.6413 145.43 46.7513 145.782 46.898C146.134 47.0373 146.387 47.2207 146.541 47.448C146.695 47.668 146.768 47.9357 146.761 48.251C146.753 48.5883 146.64 48.8927 146.42 49.164C146.207 49.4353 145.903 49.67 145.507 49.868C145.118 50.0587 144.649 50.2053 144.099 50.308C143.549 50.4107 142.936 50.462 142.262 50.462ZM157.477 50.451C156.751 50.451 156.091 50.3483 155.497 50.143C154.903 49.9377 154.394 49.648 153.968 49.274C153.543 48.9 153.213 48.449 152.978 47.921C152.744 47.393 152.626 46.81 152.626 46.172C152.626 45.5267 152.744 44.94 152.978 44.412C153.213 43.884 153.543 43.433 153.968 43.059C154.394 42.6777 154.903 42.3843 155.497 42.179C156.091 41.9737 156.751 41.871 157.477 41.871C158.394 41.871 159.212 42.0287 159.93 42.344C160.656 42.6593 161.25 43.1507 161.712 43.818L161.25 44.137C160.84 43.5577 160.312 43.1287 159.666 42.85C159.028 42.5713 158.299 42.432 157.477 42.432C156.839 42.432 156.256 42.5237 155.728 42.707C155.2 42.883 154.746 43.136 154.364 43.466C153.99 43.796 153.701 44.192 153.495 44.654C153.29 45.1087 153.187 45.6147 153.187 46.172C153.187 46.7293 153.29 47.2353 153.495 47.69C153.701 48.1447 153.99 48.537 154.364 48.867C154.746 49.1897 155.2 49.4427 155.728 49.626C156.256 49.802 156.839 49.89 157.477 49.89C158.299 49.89 159.028 49.747 159.666 49.461C160.312 49.175 160.84 48.7423 161.25 48.163L161.712 48.471C161.25 49.1383 160.656 49.637 159.93 49.967C159.212 50.2897 158.394 50.451 157.477 50.451ZM166.567 50.462C165.899 50.462 165.291 50.374 164.741 50.198C164.198 50.0293 163.729 49.791 163.333 49.483C162.944 49.1677 162.643 48.7937 162.431 48.361C162.218 47.921 162.112 47.4333 162.112 46.898C162.112 46.3627 162.218 45.8787 162.431 45.446C162.643 45.006 162.944 44.632 163.333 44.324C163.729 44.0087 164.198 43.7667 164.741 43.598C165.291 43.4293 165.899 43.345 166.567 43.345C167.234 43.345 167.839 43.4293 168.382 43.598C168.932 43.7667 169.401 44.0087 169.79 44.324C170.178 44.632 170.479 45.006 170.692 45.446C170.912 45.8787 171.022 46.3627 171.022 46.898C171.022 47.4333 170.912 47.921 170.692 48.361C170.479 48.7937 170.178 49.1677 169.79 49.483C169.401 49.791 168.932 50.0293 168.382 50.198C167.839 50.374 167.234 50.462 166.567 50.462ZM166.567 43.906C165.98 43.906 165.448 43.9793 164.972 44.126C164.495 44.2653 164.084 44.467 163.74 44.731C163.402 44.995 163.138 45.3103 162.948 45.677C162.764 46.0437 162.673 46.4507 162.673 46.898C162.673 47.3527 162.764 47.7633 162.948 48.13C163.138 48.4967 163.402 48.812 163.74 49.076C164.084 49.34 164.495 49.5453 164.972 49.692C165.448 49.8313 165.98 49.901 166.567 49.901C167.146 49.901 167.674 49.8313 168.151 49.692C168.635 49.5453 169.045 49.34 169.383 49.076C169.727 48.812 169.991 48.4967 170.175 48.13C170.365 47.7633 170.461 47.3527 170.461 46.898C170.461 46.4507 170.365 46.0437 170.175 45.677C169.991 45.3103 169.727 44.995 169.383 44.731C169.045 44.467 168.635 44.2653 168.151 44.126C167.674 43.9793 167.146 43.906 166.567 43.906ZM177.588 50.099V45.919C177.566 45.2957 177.321 44.8043 176.851 44.445C176.389 44.0857 175.74 43.906 174.904 43.906C174.362 43.906 173.874 44.0197 173.441 44.247C173.016 44.4743 172.686 44.808 172.451 45.248V50.099H171.879V43.708H172.451V44.445C172.715 44.115 173.067 43.851 173.507 43.653C173.947 43.4477 174.428 43.345 174.948 43.345C175.718 43.345 176.364 43.4917 176.884 43.785C177.405 44.0783 177.757 44.489 177.94 45.017C178.131 44.489 178.487 44.0783 179.007 43.785C179.535 43.4917 180.195 43.345 180.987 43.345C182.08 43.345 182.894 43.6017 183.429 44.115C183.972 44.621 184.243 45.4057 184.243 46.469V50.099H183.682V46.469C183.682 45.589 183.462 44.9437 183.022 44.533C182.582 44.115 181.904 43.906 180.987 43.906C180.569 43.906 180.188 43.9537 179.843 44.049C179.499 44.137 179.202 44.269 178.952 44.445C178.71 44.6137 178.52 44.8227 178.38 45.072C178.241 45.3213 178.168 45.6037 178.16 45.919V50.099H177.588ZM189.215 50.462C188.459 50.462 187.799 50.352 187.235 50.132C186.67 49.9193 186.182 49.615 185.772 49.219V51.573H185.2V43.708H185.772V44.599C186.168 44.1957 186.652 43.8877 187.224 43.675C187.796 43.455 188.459 43.345 189.215 43.345C189.867 43.345 190.461 43.4293 190.997 43.598C191.539 43.7667 192.001 44.0087 192.383 44.324C192.764 44.632 193.057 45.006 193.263 45.446C193.475 45.8787 193.582 46.3627 193.582 46.898C193.582 47.4333 193.475 47.921 193.263 48.361C193.057 48.7937 192.764 49.1677 192.383 49.483C192.001 49.791 191.539 50.0293 190.997 50.198C190.461 50.374 189.867 50.462 189.215 50.462ZM189.127 43.906C188.371 43.906 187.704 44.0233 187.125 44.258C186.553 44.4853 186.102 44.8227 185.772 45.27V48.548C186.102 48.988 186.553 49.3253 187.125 49.56C187.704 49.7873 188.371 49.901 189.127 49.901C189.706 49.901 190.234 49.8313 190.711 49.692C191.195 49.5453 191.605 49.34 191.943 49.076C192.287 48.812 192.551 48.4967 192.735 48.13C192.925 47.7633 193.021 47.3527 193.021 46.898C193.021 46.4507 192.925 46.0437 192.735 45.677C192.551 45.3103 192.287 44.995 191.943 44.731C191.605 44.467 191.195 44.2653 190.711 44.126C190.234 43.9793 189.706 43.906 189.127 43.906ZM197.851 50.462C197.287 50.462 196.77 50.4033 196.3 50.286C195.831 50.176 195.424 50.022 195.079 49.824C194.742 49.6187 194.478 49.3767 194.287 49.098C194.104 48.812 194.012 48.4967 194.012 48.152C194.012 47.47 194.331 46.942 194.969 46.568C195.615 46.1867 196.572 45.996 197.84 45.996C198.354 45.996 198.834 46.0143 199.281 46.051C199.729 46.0877 200.128 46.1317 200.48 46.183C200.832 46.2343 201.122 46.2857 201.349 46.337C201.584 46.3883 201.742 46.4287 201.822 46.458C201.822 45.6587 201.5 45.0353 200.854 44.588C200.209 44.1333 199.234 43.906 197.928 43.906C197.283 43.906 196.693 43.9647 196.157 44.082C195.629 44.1993 195.145 44.401 194.705 44.687L194.441 44.225C194.881 43.9243 195.395 43.7043 195.981 43.565C196.568 43.4183 197.217 43.345 197.928 43.345C198.764 43.345 199.465 43.433 200.029 43.609C200.601 43.7777 201.063 44.005 201.415 44.291C201.767 44.5697 202.017 44.896 202.163 45.27C202.317 45.6367 202.394 46.018 202.394 46.414V50.099H201.822V49.219C201.382 49.615 200.814 49.9193 200.117 50.132C199.428 50.352 198.673 50.462 197.851 50.462ZM197.851 49.901C198.299 49.901 198.724 49.8643 199.127 49.791C199.538 49.7177 199.916 49.615 200.26 49.483C200.612 49.351 200.92 49.1933 201.184 49.01C201.448 48.8193 201.661 48.6067 201.822 48.372V46.909C201.551 46.8503 201.078 46.7733 200.403 46.678C199.736 46.5827 198.885 46.535 197.851 46.535C196.803 46.535 195.992 46.678 195.42 46.964C194.856 47.2427 194.573 47.6387 194.573 48.152C194.573 48.4087 194.654 48.647 194.815 48.867C194.977 49.0797 195.2 49.263 195.486 49.417C195.78 49.571 196.124 49.692 196.52 49.78C196.924 49.8607 197.367 49.901 197.851 49.901ZM211.682 50.099H211.121V46.766C211.121 45.842 210.799 45.138 210.153 44.654C209.515 44.1627 208.566 43.917 207.304 43.917C206.542 43.917 205.86 44.0343 205.258 44.269C204.657 44.4963 204.191 44.8337 203.861 45.281V50.099H203.3V43.708H203.861V44.599C204.243 44.181 204.734 43.8693 205.335 43.664C205.944 43.4513 206.6 43.345 207.304 43.345C208.749 43.345 209.838 43.6383 210.571 44.225C211.312 44.8043 211.682 45.6513 211.682 46.766V50.099ZM212.692 43.708L217.081 49.021L220.909 43.708H221.624L215.75 51.837L215.277 51.529L216.751 49.494L211.966 43.708H212.692Z" fill="#033641"/>
<path d="M47.297 59.5764L35.3856 71.5007L0 36.1151L0.30989 35.7988L0.0774726 35.5793L35.2436 0L47.2324 11.8275L23.5323 35.8117L47.297 59.5764Z" fill="url(#paint0_linear_536_1958)"/>
<path d="M23.6487 59.5764L35.5536 71.5007L70.9457 36.1151L70.6293 35.7988L70.8618 35.5793L35.6957 0L23.7132 11.8275L47.4134 35.8117L23.6487 59.5764Z" fill="#205861"/>
<defs>
<linearGradient id="paint0_linear_536_1958" x1="0" y1="35.7497" x2="47.2949" y2="35.7497" gradientUnits="userSpaceOnUse">
<stop offset="0.3879" stop-color="#205861"/>
<stop offset="0.7078" stop-color="#093C47"/>
<stop offset="0.7831" stop-color="#033641"/>
</linearGradient>
</defs>
</svg>
