<svg width="566" height="181" viewBox="0 0 566 181" fill="none" xmlns="http://www.w3.org/2000/svg">
<path d="M390.389 87.8028C392.452 87.8028 394.225 88.542 395.702 90.0204C397.183 91.4576 397.92 93.2248 397.92 95.3255V114.572C397.92 116.748 397.104 118.595 395.468 120.111C387.331 127.462 377.789 131.134 366.849 131.134C355.089 131.134 345.062 126.977 336.767 118.653C328.433 110.374 324.267 100.362 324.267 88.6177C324.267 76.9143 328.433 66.9059 336.767 58.5856C345.062 50.3031 355.086 46.1602 366.849 46.1602C377.052 46.1602 386.064 49.3886 393.891 55.8419C395.489 57.1656 396.384 58.8572 396.577 60.9166C396.77 62.9761 396.205 64.8052 394.883 66.4004C393.598 67.9923 391.921 68.9068 389.862 69.1406C387.796 69.3332 385.95 68.7728 384.315 67.4491C379.253 63.2511 373.43 61.1504 366.849 61.1504C359.256 61.1504 352.751 63.8322 347.342 69.1991C341.966 74.5626 339.28 81.0366 339.28 88.6177C339.28 96.2022 341.966 102.693 347.342 108.098C352.755 113.465 359.256 116.147 366.849 116.147C372.727 116.147 378.065 114.417 382.851 110.955V95.3255C382.851 93.2248 383.591 91.4576 385.072 90.0204C386.553 88.542 388.323 87.8028 390.389 87.8028Z" fill="url(#paint0_linear_532_1391)"/>
<path d="M468.188 74.8543C468.188 80.4137 466.649 85.5091 463.574 90.1334C460.537 94.6442 456.546 97.9689 451.601 100.107L465.151 118.072C466.436 119.705 466.925 121.551 466.611 123.61C466.339 125.67 465.385 127.327 463.75 128.568C462.076 129.813 460.206 130.298 458.144 130.026C456.119 129.717 454.466 128.744 453.182 127.11L434.49 102.383H424.621V122.562C424.621 124.659 423.881 126.43 422.403 127.867C420.961 129.345 419.208 130.084 417.145 130.084C415.045 130.084 413.271 129.345 411.832 127.867C410.351 126.43 409.614 124.659 409.614 122.562V54.7962C409.614 52.7368 410.355 50.9661 411.832 49.4877C413.271 48.0506 415.045 47.332 417.145 47.332H417.496L417.906 47.3905L418.257 47.332H418.667H440.864C448.381 47.3699 454.824 50.0929 460.199 55.4976C465.52 60.8611 468.188 67.3145 468.188 74.8543ZM440.737 87.3932C444.163 87.3553 447.104 86.1107 449.556 83.6628C451.969 81.2114 453.178 78.2787 453.178 74.8543C453.178 71.4333 451.969 68.4972 449.556 66.0492C447.104 63.5978 444.184 62.3567 440.795 62.3154H424.618V87.3932H440.737Z" fill="url(#paint1_linear_532_1391)"/>
<path d="M565.915 87.3364C565.361 113.205 540.829 135.405 514.821 132.053C493.147 129.258 475.985 109.072 475.957 87.4017C475.954 83.6369 476.408 79.8653 477.321 76.2106C477.782 74.3574 478.364 72.5317 479.067 70.7542C479.721 69.0971 480.423 67.1339 481.505 65.7071C481.701 67.1304 481.536 68.6845 481.601 70.1285C481.673 71.686 481.797 73.24 481.966 74.7872C482.455 79.2017 483.281 83.4581 484.972 87.5667C486.58 91.469 488.736 95.1444 491.332 98.4759C495.286 103.547 500.306 107.779 506.012 110.764C511.219 113.487 517.059 115.202 522.93 114.914C528.719 114.632 534.373 112.363 538.818 108.649C544.28 104.09 547.861 97.3516 548.588 90.2828C550.175 74.8319 538.078 60.7252 522.534 59.9963C512.376 59.5219 502.582 64.8097 497.438 73.5701C494.259 78.9782 493.732 84.7268 493.936 90.8501C489.593 83.2106 487.813 74.0067 489.731 65.4354C493.071 50.5105 506.725 41.7501 521.604 42.0218C536.759 42.2968 551.756 51.0331 559.676 63.8952C564.132 71.1324 566.091 79.2636 565.915 87.3364Z" fill="url(#paint2_linear_532_1391)"/>
<path d="M534.146 14.1204C526.081 18.8375 522.221 27.2885 520.867 33.6593C530.578 25.927 543.057 21.3611 545.884 20.0374C552.245 17.0635 554.903 14.5983 556.973 12.7383C549.056 24.8336 529.528 28.4952 519.734 36.9874C526.119 38.0601 541.749 39.3082 552.706 30.1593C567.331 17.9574 565.964 0 565.964 0C560.86 7.29572 543.057 8.91164 534.146 14.1204Z" fill="url(#paint3_linear_532_1391)"/>
<path d="M158.747 57.1835C167.232 47.7837 177.686 45.1604 189.387 46.2056C206.75 47.7596 220.899 62.1516 221.429 79.5383C221.867 93.8753 221.657 108.233 221.526 122.58C221.471 128.6 217.824 132.348 212.683 132.379C207.631 132.41 203.778 128.532 203.685 122.656C203.506 111.032 203.619 99.4038 203.609 87.776C203.606 85.5481 203.706 83.3133 203.537 81.0992C202.786 71.1974 195.142 64.1045 185.393 64.1733C175.655 64.2386 167.989 71.4518 167.745 81.4739C167.442 93.8375 167.655 106.211 167.635 118.578C167.631 120.555 167.772 122.57 167.463 124.506C166.712 129.226 162.587 132.596 158.124 132.386C153.861 132.186 150.2 129.023 149.701 124.461C149.27 120.545 149.429 116.56 149.408 112.606C149.36 102.464 149.608 92.3144 149.274 82.1822C148.947 72.3079 142.556 65.2769 133.726 64.273C123.603 63.1212 114.877 69.6708 113.809 79.803C113.189 85.6822 113.482 91.6577 113.444 97.5919C113.393 105.754 113.568 113.923 113.355 122.082C113.186 128.549 109.412 132.52 104.133 132.382C98.8919 132.248 95.2796 128.143 95.2211 121.71C95.104 108.353 94.9387 94.9858 95.259 81.6355C95.624 66.3427 102.993 54.8387 117.005 49.0283C130.951 43.2453 144.67 44.4728 156.381 55.3544C156.925 55.8461 157.549 56.2552 158.747 57.1835Z" fill="black"/>
<path d="M68.0828 124.563C46.2131 139.464 20.9928 131.195 9.22628 115.383C-1.1869 101.39 -2.8329 86.0251 4.52933 70.605C12.1705 54.6074 25.5451 45.9742 43.7131 45.9571C67.3184 45.933 86.3438 64.3889 86.9223 87.9332C87.184 98.5605 87.0049 109.201 86.9739 119.836C86.9498 127.21 84.7804 130.882 79.87 132.113C75.4967 133.207 72.1634 131.137 68.0828 124.563ZM43.9576 64.1173C29.9425 63.9694 18.7992 74.6827 18.5548 88.5418C18.2999 102.813 29.3502 114.104 43.5891 114.118C57.4492 114.132 68.6166 103.099 68.7199 89.2913C68.8232 75.5319 57.7351 64.2617 43.9576 64.1173Z" fill="black"/>
<path d="M229.704 89.2159C229.625 64.9908 248.733 45.8748 272.976 45.9298C296.849 45.9814 316.044 64.9014 316.254 88.5833C316.464 112.602 297.201 132.224 273.241 132.389C249.191 132.554 229.787 113.31 229.704 89.2159ZM247.845 89.405C247.907 103.199 259.098 114.4 272.852 114.441C286.488 114.483 297.92 103.182 298.072 89.5116C298.227 75.5184 286.677 64.0591 272.576 64.2069C258.716 64.3548 247.779 75.4943 247.845 89.405Z" fill="black"/>
<path d="M44.3947 180C42.8727 180 41.392 179.715 39.9492 179.148C38.5063 178.577 37.215 177.724 36.0718 176.583C34.9767 175.465 34.1296 174.2 33.5374 172.78C32.9451 171.36 32.6489 169.858 32.6489 168.273C32.6489 166.709 32.9451 165.22 33.5374 163.8C34.1296 162.38 34.9733 161.115 36.0718 159.997C37.2116 158.859 38.4995 158 39.932 157.419C41.3645 156.838 42.8521 156.549 44.3947 156.549C45.9615 156.549 47.4595 156.838 48.892 157.419C50.3245 158 51.6089 158.859 52.7522 159.997C52.9966 160.221 53.1206 160.534 53.1206 160.936C53.1206 161.338 52.9863 161.675 52.7177 161.943C52.4491 162.187 52.1254 162.311 51.7432 162.311C51.3403 162.311 51.0166 162.187 50.7687 161.943C49.9181 161.094 48.9505 160.441 47.8658 159.984C46.7811 159.526 45.6206 159.296 44.3913 159.296C43.1585 159.296 42.0153 159.526 40.9512 159.984C39.8872 160.444 38.9196 161.094 38.0484 161.943C37.1978 162.792 36.5435 163.759 36.0856 164.842C35.6276 165.925 35.3969 167.07 35.3969 168.276C35.3969 169.483 35.6276 170.628 36.0856 171.711C36.5435 172.794 37.1978 173.76 38.0484 174.609C38.9437 175.503 39.9457 176.174 41.0511 176.621C42.1599 177.068 43.2722 177.291 44.3913 177.291C46.5607 177.291 48.5648 176.542 50.4002 175.046V169.617H44.4946C44.1124 169.617 43.7852 169.49 43.5029 169.232C43.224 168.974 43.0828 168.658 43.0828 168.276C43.0828 167.895 43.2205 167.578 43.5029 167.321C43.7818 167.063 44.1124 166.935 44.4946 166.935H51.7432C52.122 166.935 52.4491 167.066 52.7177 167.321C52.9863 167.578 53.1206 167.895 53.1206 168.276V175.582C53.1206 175.761 53.0862 175.947 53.0208 176.136C52.9553 176.325 52.852 176.476 52.7177 176.59C51.5779 177.728 50.29 178.584 48.8575 179.155C47.4285 179.718 45.9409 180 44.3947 180Z" fill="#13383F"/>
<path d="M73.8954 177.892L73.861 177.858C73.9058 177.992 73.9505 178.126 73.9953 178.26C74.0401 178.394 74.0607 178.528 74.0607 178.662C74.0607 178.862 73.9987 179.075 73.8748 179.298C73.7508 179.522 73.589 179.701 73.3892 179.835C73.2102 179.948 72.9863 180.003 72.7177 180.003C72.1599 180.003 71.757 179.79 71.5091 179.367L66.7088 171.728H62.1462V178.662C62.1462 179.02 62.0119 179.333 61.7433 179.601C61.4747 179.869 61.151 180.003 60.7687 180.003C60.3865 180.003 60.0697 179.869 59.8115 179.601C59.5532 179.333 59.4258 179.02 59.4258 178.662V157.886C59.4258 157.528 59.5532 157.215 59.8115 156.947C60.0697 156.679 60.3865 156.545 60.7687 156.545H66.4402C66.5504 156.545 66.9774 156.593 67.7143 156.696C68.4512 156.796 69.2811 157.061 70.1971 157.484H70.1627C71.3713 158.13 72.3217 159.031 73.0139 160.179C73.706 161.331 74.0538 162.641 74.0538 164.116C74.0538 164.181 74.0469 164.329 74.0366 164.552C74.0263 164.776 73.985 165.061 73.9195 165.405C73.8507 165.752 73.7577 166.144 73.6337 166.577C73.5098 167.011 73.3376 167.454 73.1137 167.901C72.8004 168.547 72.3458 169.142 71.7536 169.679C71.1613 170.215 70.4622 170.707 69.6565 171.154L73.8954 177.892ZM62.1496 168.977H66.4437C67.4492 168.977 68.2997 168.788 68.9953 168.406C69.6875 168.028 70.2384 167.478 70.6413 166.766C70.7963 166.478 70.9202 166.179 71.0098 165.876C71.0993 165.573 71.1647 165.295 71.2129 165.041C71.2577 164.783 71.2852 164.573 71.2956 164.404C71.3059 164.236 71.3128 164.143 71.3128 164.119C71.3128 162.132 70.5173 160.722 68.9299 159.897C68.6165 159.742 68.3135 159.622 68.0242 159.546C67.7315 159.467 67.4664 159.405 67.2185 159.361C66.9499 159.316 66.6916 159.295 66.4471 159.295H62.153V168.977H62.1496Z" fill="#13383F"/>
<path d="M99.8043 178.126C99.8491 178.305 99.8697 178.484 99.8697 178.662C99.8697 178.996 99.7526 179.305 99.5185 179.584C99.2843 179.862 98.9537 180.003 98.5302 180.003C98.2823 180.003 98.0309 179.91 97.7761 179.718C97.5178 179.529 97.3353 179.312 97.2217 179.065V179.099L95.5102 174.843H84.9042C84.6563 175.489 84.3773 176.201 84.064 176.971C83.7506 177.741 83.4579 178.449 83.1928 179.099C83.0791 179.323 82.8966 179.529 82.6384 179.718C82.3801 179.907 82.1391 180.003 81.9152 180.003C81.5123 180.003 81.1887 179.859 80.9407 179.567C80.6928 179.278 80.5723 178.975 80.5723 178.662C80.5723 178.484 80.5929 178.305 80.6377 178.126L87.1804 161.706L88.9262 157.449V157.484C89.0364 157.236 89.212 157.019 89.4462 156.83C89.6804 156.641 89.9421 156.545 90.2348 156.545C90.4792 156.545 90.7272 156.638 90.9717 156.83C91.2196 157.019 91.3952 157.236 91.5089 157.484V157.449L99.8043 178.126ZM94.367 172.092L90.2382 161.571L86.044 172.092H94.367Z" fill="#13383F"/>
<path d="M122.091 179.999C121.843 179.999 121.626 179.937 121.436 179.813C121.247 179.689 121.085 179.538 120.951 179.359L108.971 162.238V178.658C108.971 179.016 108.83 179.328 108.551 179.597C108.272 179.865 107.931 179.999 107.528 179.999C107.17 179.999 106.857 179.865 106.588 179.597C106.319 179.328 106.185 179.016 106.185 178.658V157.881C106.185 157.544 106.319 157.238 106.588 156.96C106.857 156.682 107.18 156.541 107.562 156.541C107.807 156.541 108.027 156.602 108.217 156.723C108.406 156.847 108.568 156.998 108.702 157.177L120.717 174.299V157.878C120.717 157.52 120.851 157.208 121.12 156.939C121.388 156.671 121.712 156.537 122.094 156.537C122.476 156.537 122.8 156.671 123.069 156.939C123.337 157.208 123.472 157.52 123.472 157.878V178.655C123.472 179.012 123.337 179.325 123.069 179.593C122.793 179.868 122.469 179.999 122.091 179.999Z" fill="#13383F"/>
<path d="M131.185 179.999C130.827 179.999 130.514 179.865 130.245 179.597C129.977 179.329 129.842 179.016 129.842 178.659V157.882C129.842 157.524 129.977 157.211 130.245 156.943C130.514 156.675 130.827 156.541 131.185 156.541H137.225C137.246 156.541 137.511 156.558 138.014 156.589C138.516 156.624 139.14 156.744 139.877 156.957C140.617 157.17 141.409 157.511 142.26 157.978C143.11 158.446 143.892 159.116 144.608 159.989C145.324 160.863 145.923 161.966 146.402 163.307C146.884 164.648 147.122 166.302 147.122 168.265C147.122 170.228 146.881 171.882 146.402 173.223C145.92 174.564 145.321 175.667 144.608 176.541C143.892 177.414 143.11 178.081 142.26 178.552C141.409 179.02 140.617 179.363 139.877 179.573C139.14 179.786 138.516 179.91 138.014 179.941C137.511 179.975 137.246 179.993 137.225 179.993H131.185V179.999ZM132.628 177.252H137.225C137.27 177.252 137.404 177.242 137.628 177.218C137.852 177.194 138.131 177.146 138.468 177.067C138.806 176.988 139.185 176.864 139.608 176.699C140.032 176.53 140.469 176.314 140.917 176.046C142.012 175.306 142.862 174.282 143.468 172.962C144.071 171.645 144.374 170.08 144.374 168.272C144.374 166.395 144.061 164.799 143.434 163.479C142.807 162.159 141.912 161.134 140.748 160.395C140.345 160.127 139.932 159.921 139.505 159.776C139.078 159.632 138.699 159.525 138.365 159.457C138.028 159.388 137.649 159.333 137.225 159.288H132.628V177.252Z" fill="#13383F"/>
<path d="M180.386 177.892L180.352 177.858C180.396 177.992 180.441 178.126 180.486 178.26C180.531 178.394 180.551 178.528 180.551 178.662C180.551 178.862 180.489 179.075 180.365 179.298C180.242 179.522 180.08 179.701 179.88 179.835C179.701 179.948 179.477 180.003 179.208 180.003C178.651 180.003 178.248 179.79 178 179.367L173.2 171.728H168.637V178.662C168.637 179.02 168.503 179.333 168.234 179.601C167.965 179.869 167.642 180.003 167.259 180.003C166.877 180.003 166.56 179.869 166.302 179.601C166.044 179.333 165.917 179.02 165.917 178.662V157.886C165.917 157.528 166.044 157.215 166.302 156.947C166.56 156.679 166.877 156.545 167.259 156.545H172.931C173.041 156.545 173.468 156.593 174.205 156.696C174.942 156.796 175.772 157.061 176.688 157.484H176.653C177.862 158.13 178.812 159.031 179.505 160.179C180.197 161.331 180.545 162.641 180.545 164.116C180.545 164.181 180.538 164.329 180.527 164.552C180.517 164.776 180.476 165.061 180.41 165.405C180.341 165.752 180.248 166.144 180.124 166.577C180 167.011 179.828 167.454 179.604 167.901C179.291 168.547 178.837 169.142 178.244 169.679C177.652 170.215 176.953 170.707 176.147 171.154L180.386 177.892ZM168.637 168.977H172.931C173.936 168.977 174.787 168.788 175.483 168.406C176.175 168.028 176.726 167.478 177.129 166.766C177.284 166.478 177.408 166.179 177.497 165.876C177.587 165.573 177.652 165.295 177.7 165.041C177.745 164.783 177.773 164.573 177.783 164.404C177.793 164.236 177.8 164.143 177.8 164.119C177.8 162.132 177.005 160.722 175.417 159.897C175.104 159.742 174.801 159.622 174.512 159.546C174.219 159.467 173.954 159.405 173.706 159.361C173.437 159.316 173.179 159.295 172.934 159.295H168.64V168.977H168.637Z" fill="#13383F"/>
<path d="M200.889 177.655C201.157 177.923 201.292 178.257 201.292 178.662C201.292 179.02 201.157 179.333 200.889 179.601C200.62 179.869 200.296 180.003 199.914 180.003H188.502C188.12 180.003 187.797 179.869 187.528 179.601C187.259 179.333 187.125 179.02 187.125 178.662V157.886C187.125 157.528 187.259 157.215 187.528 156.947C187.797 156.679 188.12 156.545 188.502 156.545H199.914C200.293 156.545 200.62 156.679 200.889 156.947C201.157 157.215 201.292 157.528 201.292 157.886C201.292 158.288 201.157 158.622 200.889 158.89C200.62 159.158 200.296 159.292 199.914 159.292H189.88V166.932H197.834C198.213 166.932 198.533 167.062 198.792 167.317C199.05 167.574 199.177 167.891 199.177 168.272C199.177 168.654 199.05 168.97 198.792 169.228C198.533 169.486 198.217 169.613 197.834 169.613H189.88V177.253H199.914C200.296 177.253 200.624 177.387 200.889 177.655Z" fill="#13383F"/>
<path d="M217.807 179.998C216.285 179.998 214.804 179.713 213.361 179.146C211.918 178.575 210.627 177.722 209.484 176.581C208.389 175.463 207.542 174.198 206.949 172.778C206.357 171.358 206.061 169.856 206.061 168.271C206.061 166.707 206.357 165.218 206.949 163.798C207.542 162.378 208.385 161.113 209.484 159.995C210.624 158.857 211.912 157.998 213.344 157.417C214.777 156.836 216.264 156.547 217.807 156.547C219.374 156.547 220.872 156.836 222.304 157.417C223.737 157.998 225.021 158.857 226.164 159.995C226.409 160.219 226.533 160.532 226.533 160.934C226.533 161.336 226.398 161.673 226.13 161.941C225.861 162.185 225.538 162.309 225.155 162.309C224.752 162.309 224.429 162.185 224.181 161.941C223.33 161.092 222.363 160.439 221.278 159.982C220.193 159.524 219.033 159.294 217.803 159.294C216.571 159.294 215.427 159.524 214.363 159.982C213.299 160.442 212.332 161.092 211.46 161.941C210.61 162.791 209.956 163.757 209.498 164.84C209.04 165.923 208.809 167.068 208.809 168.274C208.809 169.481 209.04 170.626 209.498 171.709C209.956 172.792 210.61 173.758 211.46 174.607C212.356 175.501 213.358 176.172 214.463 176.619C215.572 177.066 216.684 177.289 217.803 177.289C219.973 177.289 221.977 176.54 223.812 175.044V169.615H217.907C217.525 169.615 217.197 169.488 216.915 169.23C216.636 168.972 216.495 168.656 216.495 168.274C216.495 167.893 216.633 167.576 216.915 167.319C217.194 167.061 217.525 166.933 217.907 166.933H225.155C225.534 166.933 225.861 167.064 226.13 167.319C226.398 167.576 226.533 167.893 226.533 168.274V175.58C226.533 175.759 226.498 175.945 226.433 176.134C226.367 176.323 226.264 176.474 226.13 176.588C224.99 177.726 223.702 178.582 222.27 179.153C220.837 179.716 219.35 179.998 217.807 179.998Z" fill="#13383F"/>
<path d="M234.318 179.999C233.96 179.999 233.647 179.865 233.378 179.597C233.109 179.329 232.975 179.016 232.975 178.659V157.882C232.975 157.524 233.109 157.211 233.378 156.943C233.647 156.675 233.96 156.541 234.318 156.541C234.697 156.541 235.027 156.675 235.306 156.943C235.585 157.211 235.726 157.524 235.726 157.882V178.659C235.726 179.016 235.585 179.329 235.306 179.597C235.027 179.869 234.697 179.999 234.318 179.999Z" fill="#13383F"/>
<path d="M253.884 179.999C252.341 179.999 250.885 179.693 249.521 179.078C248.158 178.463 246.963 177.627 245.947 176.565C244.928 175.502 244.122 174.258 243.53 172.827C242.937 171.397 242.641 169.878 242.641 168.272C242.641 166.663 242.937 165.15 243.53 163.73C244.122 162.314 244.928 161.066 245.947 159.993C246.963 158.92 248.158 158.078 249.521 157.462C250.885 156.847 252.341 156.541 253.884 156.541C255.427 156.541 256.883 156.847 258.247 157.462C259.611 158.078 260.799 158.92 261.804 159.993C262.81 161.066 263.612 162.31 264.204 163.73C264.797 165.15 265.093 166.663 265.093 168.272C265.093 169.881 264.797 171.401 264.204 172.827C263.612 174.258 262.813 175.502 261.804 176.565C260.799 177.627 259.611 178.463 258.247 179.078C256.88 179.693 255.427 179.999 253.884 179.999ZM253.884 159.292C252.7 159.292 251.591 159.525 250.561 159.996C249.532 160.464 248.636 161.103 247.875 161.908C247.114 162.712 246.512 163.661 246.064 164.758C245.616 165.851 245.392 167.024 245.392 168.275C245.392 169.527 245.616 170.699 246.064 171.793C246.512 172.886 247.114 173.838 247.875 174.643C248.636 175.447 249.532 176.083 250.561 176.551C251.591 177.019 252.696 177.256 253.884 177.256C255.048 177.256 256.143 177.022 257.173 176.551C258.202 176.083 259.101 175.444 259.876 174.643C260.647 173.838 261.253 172.889 261.687 171.793C262.125 170.699 262.341 169.527 262.341 168.275C262.341 167.024 262.125 165.851 261.687 164.758C261.25 163.665 260.647 162.712 259.876 161.908C259.105 161.103 258.202 160.467 257.173 159.996C256.143 159.525 255.048 159.292 253.884 159.292Z" fill="#13383F"/>
<path d="M287.176 179.999C286.928 179.999 286.711 179.937 286.522 179.813C286.332 179.689 286.171 179.538 286.036 179.359L274.056 162.238V178.658C274.056 179.016 273.915 179.328 273.636 179.597C273.357 179.865 273.016 179.999 272.613 179.999C272.255 179.999 271.942 179.865 271.673 179.597C271.405 179.328 271.271 179.016 271.271 178.658V157.881C271.271 157.544 271.405 157.238 271.673 156.96C271.942 156.682 272.266 156.541 272.648 156.541C272.892 156.541 273.113 156.602 273.302 156.723C273.492 156.847 273.653 156.998 273.788 157.177L285.802 174.299V157.878C285.802 157.52 285.936 157.208 286.205 156.939C286.474 156.671 286.797 156.537 287.18 156.537C287.558 156.537 287.885 156.671 288.151 156.939C288.423 157.208 288.553 157.52 288.553 157.878V178.655C288.553 179.012 288.419 179.325 288.151 179.593C287.882 179.868 287.555 179.999 287.176 179.999Z" fill="#13383F"/>
<path d="M314.16 178.126C314.205 178.305 314.229 178.484 314.229 178.662C314.229 178.996 314.112 179.305 313.877 179.584C313.643 179.862 313.313 180.003 312.886 180.003C312.641 180.003 312.386 179.91 312.132 179.718C311.877 179.525 311.691 179.312 311.577 179.065V179.099L309.866 174.843H299.26C299.015 175.489 298.736 176.201 298.423 176.971C298.11 177.741 297.82 178.449 297.548 179.099C297.438 179.323 297.252 179.529 296.994 179.718C296.736 179.907 296.495 180.003 296.274 180.003C295.871 180.003 295.548 179.859 295.3 179.567C295.052 179.278 294.931 178.975 294.931 178.662C294.931 178.484 294.955 178.305 295 178.126L301.546 161.706L303.292 157.449V157.484C303.402 157.236 303.578 157.019 303.812 156.83C304.046 156.641 304.311 156.545 304.601 156.545C304.845 156.545 305.093 156.638 305.337 156.83C305.582 157.019 305.761 157.236 305.875 157.484V157.449L314.16 178.126ZM308.722 172.092L304.594 161.571L300.399 172.092H308.722Z" fill="#13383F"/>
<path d="M322.014 179.999C321.632 179.999 321.305 179.865 321.023 179.597C320.744 179.329 320.603 179.016 320.603 178.659V157.882C320.603 157.524 320.744 157.211 321.023 156.943C321.302 156.675 321.632 156.541 322.014 156.541C322.393 156.541 322.72 156.675 322.985 156.943C323.254 157.211 323.388 157.524 323.388 157.882V177.249H331.308C331.711 177.249 332.052 177.383 332.331 177.651C332.61 177.919 332.751 178.253 332.751 178.659C332.751 179.016 332.61 179.329 332.331 179.597C332.052 179.865 331.711 179.999 331.308 179.999H322.014Z" fill="#13383F"/>
<path d="M362.858 179.999C361.315 179.999 359.859 179.693 358.495 179.078C357.131 178.463 355.94 177.627 354.921 176.565C353.905 175.502 353.099 174.258 352.503 172.827C351.911 171.397 351.615 169.878 351.615 168.272C351.615 166.663 351.911 165.15 352.503 163.73C353.095 162.314 353.901 161.066 354.921 159.993C355.94 158.92 357.131 158.078 358.495 157.462C359.859 156.847 361.315 156.541 362.858 156.541C364.401 156.541 365.857 156.847 367.221 157.462C368.584 158.078 369.772 158.92 370.778 159.993C371.787 161.066 372.586 162.31 373.178 163.73C373.77 165.15 374.066 166.663 374.066 168.272C374.066 169.881 373.77 171.401 373.178 172.827C372.586 174.258 371.787 175.502 370.778 176.565C369.772 177.627 368.584 178.463 367.221 179.078C365.854 179.693 364.401 179.999 362.858 179.999ZM362.858 159.292C361.67 159.292 360.564 159.525 359.535 159.996C358.505 160.464 357.61 161.103 356.849 161.908C356.088 162.712 355.485 163.661 355.038 164.758C354.59 165.851 354.366 167.024 354.366 168.275C354.366 169.527 354.59 170.699 355.038 171.793C355.485 172.886 356.088 173.838 356.849 174.643C357.61 175.447 358.505 176.083 359.535 176.551C360.564 177.019 361.67 177.256 362.858 177.256C364.022 177.256 365.117 177.022 366.146 176.551C367.176 176.083 368.075 175.444 368.846 174.643C369.617 173.838 370.224 172.889 370.661 171.793C371.098 170.699 371.315 169.527 371.315 168.275C371.315 167.024 371.098 165.851 370.661 164.758C370.224 163.665 369.621 162.712 368.846 161.908C368.071 161.103 367.173 160.467 366.146 159.996C365.117 159.525 364.018 159.292 362.858 159.292Z" fill="#13383F"/>
<path d="M394.772 177.892L394.741 177.858C394.786 177.992 394.831 178.126 394.876 178.26C394.92 178.394 394.941 178.528 394.941 178.662C394.941 178.862 394.879 179.075 394.759 179.298C394.635 179.522 394.473 179.701 394.273 179.835C394.094 179.948 393.87 180.003 393.602 180.003C393.044 180.003 392.641 179.79 392.393 179.367L387.593 171.728H383.026V178.662C383.026 179.02 382.892 179.333 382.624 179.601C382.355 179.869 382.031 180.003 381.649 180.003C381.267 180.003 380.95 179.869 380.692 179.601C380.434 179.333 380.306 179.02 380.306 178.662V157.886C380.306 157.528 380.434 157.215 380.692 156.947C380.95 156.679 381.267 156.545 381.649 156.545H387.321C387.431 156.545 387.858 156.593 388.595 156.696C389.335 156.796 390.161 157.061 391.077 157.484H391.046C392.255 158.13 393.206 159.031 393.898 160.179C394.59 161.331 394.938 162.641 394.938 164.116C394.938 164.181 394.931 164.329 394.92 164.552C394.907 164.776 394.869 165.061 394.803 165.405C394.738 165.752 394.641 166.144 394.517 166.577C394.394 167.011 394.221 167.454 393.998 167.901C393.684 168.547 393.23 169.142 392.637 169.679C392.045 170.215 391.346 170.707 390.54 171.154L394.772 177.892ZM383.026 168.977H387.324C388.33 168.977 389.18 168.788 389.876 168.406C390.568 168.028 391.119 167.478 391.522 166.766C391.677 166.478 391.801 166.179 391.89 165.876C391.98 165.573 392.045 165.295 392.093 165.041C392.138 164.783 392.166 164.573 392.176 164.404C392.186 164.236 392.193 164.143 392.193 164.119C392.193 162.132 391.398 160.722 389.81 159.897C389.497 159.742 389.194 159.622 388.905 159.546C388.615 159.467 388.347 159.405 388.099 159.361C387.83 159.316 387.572 159.295 387.327 159.295H383.03V168.977H383.026Z" fill="#13383F"/>
<path d="M417.461 176.18C417.73 176.07 417.954 176.011 418.133 176.011C418.377 176.011 418.612 176.073 418.839 176.197C419.063 176.321 419.231 176.503 419.342 176.75C419.521 177.063 419.548 177.41 419.424 177.789C419.3 178.17 419.094 178.449 418.804 178.628L418.839 178.593C417.988 179.02 417.076 179.36 416.105 179.614C415.13 179.872 414.163 179.999 413.202 179.999C411.59 179.999 410.068 179.693 408.639 179.078C407.207 178.463 405.96 177.627 404.896 176.565C403.832 175.502 402.995 174.258 402.379 172.827C401.763 171.397 401.456 169.878 401.456 168.272C401.456 166.663 401.763 165.15 402.379 163.73C402.995 162.314 403.832 161.066 404.896 159.993C405.96 158.92 407.207 158.078 408.639 157.462C410.072 156.847 411.594 156.541 413.202 156.541C414.163 156.541 415.134 156.682 416.105 156.96C417.076 157.239 417.988 157.569 418.839 157.951L418.804 157.916C419.118 158.116 419.335 158.401 419.459 158.769C419.583 159.137 419.545 159.491 419.342 159.824C419.094 160.292 418.694 160.529 418.133 160.529C417.909 160.529 417.685 160.474 417.461 160.361H417.496C416.893 160.024 416.215 159.763 415.464 159.573C414.714 159.384 413.959 159.288 413.198 159.288C411.969 159.288 410.812 159.522 409.724 159.993C408.639 160.46 407.689 161.1 406.869 161.905C406.053 162.709 405.406 163.658 404.924 164.755C404.442 165.848 404.204 167.02 404.204 168.272C404.204 169.523 404.445 170.696 404.924 171.789C405.406 172.882 406.053 173.835 406.869 174.639C407.685 175.444 408.636 176.08 409.724 176.548C410.809 177.015 411.966 177.252 413.198 177.252C413.98 177.252 414.738 177.166 415.464 177.001C416.191 176.833 416.869 176.561 417.496 176.18H417.461Z" fill="#13383F"/>
<path d="M440.75 156.545C441.132 156.545 441.456 156.679 441.724 156.947C441.993 157.215 442.127 157.528 442.127 157.886V178.662C442.127 179.02 441.993 179.333 441.724 179.601C441.456 179.869 441.132 180.003 440.75 180.003C440.368 180.003 440.044 179.869 439.779 179.601C439.51 179.333 439.376 179.02 439.376 178.662V169.613H428.67V178.662C428.67 179.02 428.536 179.333 428.267 179.601C427.999 179.869 427.675 180.003 427.293 180.003C426.91 180.003 426.583 179.869 426.304 179.601C426.025 179.333 425.884 179.02 425.884 178.662V157.886C425.884 157.528 426.025 157.215 426.304 156.947C426.583 156.679 426.914 156.545 427.293 156.545C427.671 156.545 427.999 156.679 428.267 156.947C428.536 157.215 428.67 157.528 428.67 157.886V166.932H439.376V157.886C439.376 157.528 439.51 157.215 439.779 156.947C440.047 156.679 440.371 156.545 440.75 156.545Z" fill="#13383F"/>
<path d="M467.802 178.126C467.847 178.305 467.871 178.484 467.871 178.662C467.871 178.996 467.754 179.305 467.52 179.584C467.286 179.862 466.955 180.003 466.528 180.003C466.284 180.003 466.029 179.91 465.774 179.718C465.519 179.525 465.333 179.312 465.22 179.065V179.099L463.508 174.843H452.902C452.658 175.489 452.379 176.201 452.065 176.971C451.752 177.741 451.463 178.449 451.191 179.099C451.081 179.323 450.895 179.529 450.636 179.718C450.378 179.907 450.137 180.003 449.917 180.003C449.514 180.003 449.19 179.859 448.942 179.567C448.694 179.278 448.574 178.975 448.574 178.662C448.574 178.484 448.598 178.305 448.643 178.126L455.189 161.706L456.935 157.449V157.484C457.045 157.236 457.22 157.019 457.455 156.83C457.689 156.641 457.954 156.545 458.243 156.545C458.488 156.545 458.736 156.638 458.98 156.83C459.225 157.019 459.404 157.236 459.517 157.484V157.449L467.802 178.126ZM462.365 172.092L458.236 161.571L454.042 172.092H462.365Z" fill="#13383F"/>
<path d="M488.711 177.892L488.68 177.858C488.725 177.992 488.77 178.126 488.815 178.26C488.859 178.394 488.88 178.528 488.88 178.662C488.88 178.862 488.818 179.075 488.698 179.298C488.574 179.522 488.412 179.701 488.212 179.835C488.033 179.948 487.809 180.003 487.541 180.003C486.983 180.003 486.58 179.79 486.332 179.367L481.532 171.728H476.966V178.662C476.966 179.02 476.831 179.333 476.563 179.601C476.294 179.869 475.97 180.003 475.588 180.003C475.206 180.003 474.889 179.869 474.631 179.601C474.373 179.333 474.245 179.02 474.245 178.662V157.886C474.245 157.528 474.373 157.215 474.631 156.947C474.889 156.679 475.206 156.545 475.588 156.545H481.26C481.37 156.545 481.797 156.593 482.534 156.696C483.274 156.796 484.1 157.061 485.016 157.484H484.985C486.194 158.13 487.145 159.031 487.837 160.179C488.529 161.331 488.877 162.641 488.877 164.116C488.877 164.181 488.87 164.329 488.859 164.552C488.846 164.776 488.808 165.061 488.742 165.405C488.677 165.752 488.58 166.144 488.457 166.577C488.333 167.011 488.16 167.454 487.937 167.901C487.623 168.547 487.169 169.142 486.576 169.679C485.984 170.215 485.285 170.707 484.479 171.154L488.711 177.892ZM476.966 168.977H481.263C482.269 168.977 483.119 168.788 483.815 168.406C484.507 168.028 485.058 167.478 485.461 166.766C485.616 166.478 485.74 166.179 485.829 165.876C485.919 165.573 485.984 165.295 486.032 165.041C486.077 164.783 486.105 164.573 486.115 164.404C486.125 164.236 486.132 164.143 486.132 164.119C486.132 162.132 485.337 160.722 483.749 159.897C483.436 159.742 483.133 159.622 482.844 159.546C482.554 159.467 482.286 159.405 482.038 159.361C481.769 159.316 481.511 159.295 481.266 159.295H476.969V168.977H476.966Z" fill="#13383F"/>
<path d="M496.731 179.999C496.373 179.999 496.06 179.865 495.791 179.597C495.522 179.329 495.388 179.016 495.388 178.659V157.882C495.388 157.524 495.522 157.211 495.791 156.943C496.06 156.675 496.373 156.541 496.731 156.541H502.771C502.792 156.541 503.057 156.558 503.56 156.589C504.062 156.624 504.682 156.744 505.423 156.957C506.16 157.17 506.955 157.511 507.806 157.978C508.656 158.446 509.438 159.116 510.154 159.989C510.87 160.863 511.469 161.966 511.948 163.307C512.43 164.648 512.671 166.302 512.671 168.265C512.671 170.228 512.43 171.882 511.948 173.223C511.466 174.564 510.867 175.667 510.154 176.541C509.438 177.414 508.653 178.081 507.806 178.552C506.955 179.02 506.163 179.363 505.423 179.573C504.682 179.786 504.062 179.91 503.56 179.941C503.057 179.975 502.792 179.993 502.771 179.993H496.731V179.999ZM498.174 177.252H502.771C502.816 177.252 502.95 177.242 503.174 177.218C503.398 177.194 503.677 177.146 504.014 177.067C504.348 176.988 504.73 176.864 505.154 176.699C505.578 176.53 506.015 176.314 506.463 176.046C507.558 175.306 508.408 174.282 509.014 172.962C509.617 171.645 509.92 170.08 509.92 168.272C509.92 166.395 509.606 164.799 508.98 163.479C508.353 162.159 507.458 161.134 506.294 160.395C505.891 160.127 505.478 159.921 505.051 159.776C504.624 159.632 504.245 159.525 503.911 159.457C503.573 159.388 503.195 159.333 502.771 159.288H498.174V177.252Z" fill="#13383F"/>
<path d="M526.332 165.927C526.487 165.972 526.755 166.071 527.138 166.229C527.516 166.384 527.954 166.594 528.446 166.848C528.939 167.106 529.452 167.419 529.989 167.787C530.526 168.155 531.029 168.574 531.501 169.045C531.969 169.513 532.372 170.032 532.709 170.603C533.047 171.173 533.257 171.792 533.346 172.463V172.8C533.346 173.714 533.167 174.605 532.809 175.464C532.451 176.324 531.948 177.08 531.297 177.726C530.581 178.442 529.741 178.988 528.78 179.366C527.819 179.748 526.8 179.937 525.726 179.937H525.457C524.094 179.892 522.85 179.507 521.731 178.782C520.612 178.057 519.772 177.08 519.214 175.849C519.149 175.715 519.114 175.526 519.114 175.279C519.114 175.031 519.193 174.787 519.348 174.539C519.503 174.295 519.741 174.103 520.054 173.969C520.099 173.924 520.233 173.9 520.457 173.9C520.726 173.9 520.977 173.969 521.211 174.103C521.446 174.237 521.618 174.426 521.731 174.673C522.089 175.457 522.609 176.062 523.291 176.499C523.973 176.936 524.737 177.163 525.591 177.187H525.76C527.237 177.187 528.412 176.729 529.283 175.811C530.178 174.962 530.626 173.958 530.626 172.796V172.662C530.581 172.15 530.361 171.662 529.972 171.204C529.579 170.747 529.121 170.334 528.594 169.963C528.067 169.595 527.523 169.276 526.965 169.007C526.408 168.739 525.936 168.55 525.557 168.437L525.591 168.471C525.412 168.402 525.288 168.371 525.223 168.371C522.024 167.209 520.423 165.177 520.423 162.272V162.004C520.468 161.199 520.671 160.453 521.029 159.759C521.387 159.068 521.9 158.463 522.572 157.95C523.154 157.483 523.825 157.122 524.586 156.878C525.347 156.634 526.153 156.51 527.003 156.51H527.341C527.988 156.534 528.642 156.664 529.304 156.912C529.965 157.16 530.574 157.483 531.132 157.885C531.242 158.04 531.373 158.225 531.518 158.439C531.662 158.652 531.735 158.837 531.735 158.992C531.735 159.329 531.625 159.608 531.401 159.828C531.108 160.185 530.74 160.364 530.292 160.364C530.178 160.364 530.044 160.347 529.889 160.312C529.734 160.281 529.6 160.206 529.486 160.096C529.173 159.872 528.808 159.683 528.395 159.525C527.981 159.37 527.582 159.281 527.203 159.257H526.934C525.86 159.257 524.965 159.525 524.252 160.061C523.536 160.598 523.167 161.289 523.143 162.138V162.272C523.143 162.829 523.233 163.3 523.412 163.678C523.591 164.056 523.832 164.383 524.131 164.648C524.434 164.916 524.769 165.146 525.14 165.335C525.512 165.525 525.895 165.7 526.297 165.855L526.332 165.927Z" fill="#13383F"/>
<defs>
<linearGradient id="paint0_linear_532_1391" x1="267.189" y1="184.865" x2="437.02" y2="20.3756" gradientUnits="userSpaceOnUse">
<stop offset="0.0588" stop-color="#196E30"/>
<stop offset="0.8687" stop-color="#10A53A"/>
</linearGradient>
<linearGradient id="paint1_linear_532_1391" x1="301.682" y1="220.478" x2="471.514" y2="55.9886" gradientUnits="userSpaceOnUse">
<stop offset="0.0588" stop-color="#196E30"/>
<stop offset="0.8687" stop-color="#10A53A"/>
</linearGradient>
<linearGradient id="paint2_linear_532_1391" x1="482.833" y1="64.3833" x2="566.803" y2="114.978" gradientUnits="userSpaceOnUse">
<stop offset="0.0588" stop-color="#E73C17"/>
<stop offset="0.8687" stop-color="#F28E00"/>
</linearGradient>
<linearGradient id="paint3_linear_532_1391" x1="513.5" y1="37.7974" x2="558.331" y2="14.8426" gradientUnits="userSpaceOnUse">
<stop offset="0.0588" stop-color="#196E30"/>
<stop offset="0.8687" stop-color="#10A53A"/>
</linearGradient>
</defs>
</svg>
